<svg width="24" height="24" viewBox="0 0 24 24" style="fill: var(--color_fill)" fill="none" xmlns="http://www.w3.org/2000/svg">
<g id="24px/Search">
<g id="Group">
<path id="Vector" d="M18.031 16.617L21.6064 20.1916C21.9972 20.5823 21.9972 21.2158 21.6065 21.6065C21.2158 21.9972 20.5823 21.9972 20.1916 21.6064L16.617 18.031C15.0237 19.3082 13.042 20.0029 11 20C6.032 20 2 15.968 2 11C2 6.032 6.032 2 11 2C15.968 2 20 6.032 20 11C20.0029 13.042 19.3082 15.0237 18.031 16.617ZM16.025 15.875C17.2941 14.5699 18.0029 12.8204 18 11C18 7.132 14.867 4 11 4C7.132 4 4 7.132 4 11C4 14.867 7.132 18 11 18C12.8204 18.0029 14.5699 17.2941 15.875 16.025L16.025 15.875Z" fill="#9BA1FF"/>
</g>
</g>
</svg>
