<svg width="56" height="56" viewBox="0 0 56 56" fill="none" xmlns="http://www.w3.org/2000/svg">
<g clip-path="url(#clip0_2_3725)">
<path d="M28 56C43.464 56 56 43.464 56 28C56 12.536 43.464 0 28 0C12.536 0 0 12.536 0 28C0 43.464 12.536 56 28 56Z" fill="url(#paint0_linear_2_3725)"/>
<path d="M16.823 35.4321C16.448 34.8911 15.552 34.8911 15.177 35.4321C14.522 36.3791 13 38.7221 13 40.0001C13 41.6541 14.346 43.0001 16 43.0001C17.654 43.0001 19 41.6541 19 40.0001C19 38.7221 17.478 36.3791 16.823 35.4321Z" fill="url(#paint1_linear_2_3725)"/>
<path d="M42.642 28.287L41.315 26.48C39.9035 27.4677 38.2228 27.9983 36.5 28H30C29.7348 28 29.4805 27.8946 29.2929 27.7071C29.1054 27.5196 29 27.2652 29 27C29 26.7348 29.1054 26.4804 29.2929 26.2929C29.4805 26.1054 29.7348 26 30 26H36.5C40.084 26 43 23.084 43 19.5C43 15.916 40.084 13 36.5 13H31.417L31.333 12.886C30.754 12.306 29.927 12 28.942 12C26.347 12 22.516 14.154 19.183 17.487C15.122 21.548 12.129 27.186 14.581 29.637C14.608 29.664 29.98 40.945 29.98 40.945C30.434 41.365 31.009 41.552 31.663 41.552C33.772 41.552 36.699 39.608 39.001 37.306C40.583 35.723 41.854 33.997 42.577 32.446C43.652 30.145 43.225 28.919 42.642 28.287ZM36.5 15C38.981 15 41 17.019 41 19.5C40.9991 20.2482 40.8114 20.9844 40.454 21.6417C40.0965 22.299 39.5806 22.8566 38.953 23.264L32.886 15H36.5ZM15.996 28.223C15.034 27.261 16.348 23.151 20.598 18.901C24.79 14.709 28.919 13.302 29.919 14.3C31.551 15.933 27.387 21.554 25.318 23.622C21.045 27.895 16.955 29.18 15.996 28.223Z" fill="url(#paint2_linear_2_3725)"/>
</g>
<defs>
<linearGradient id="paint0_linear_2_3725" x1="8.20105" y1="47.799" x2="47.799" y2="8.20105" gradientUnits="userSpaceOnUse">
<stop stop-color="#1C2FD8"/>
<stop offset="1" stop-color="#54C1FF"/>
</linearGradient>
<linearGradient id="paint1_linear_2_3725" x1="16" y1="35.0264" x2="16" y2="43.0001" gradientUnits="userSpaceOnUse">
<stop stop-color="#ECF6FF"/>
<stop offset="1" stop-color="white" stop-opacity="0.04"/>
</linearGradient>
<linearGradient id="paint2_linear_2_3725" x1="28.4665" y1="12" x2="28.4665" y2="41.552" gradientUnits="userSpaceOnUse">
<stop stop-color="#ECF6FF"/>
<stop offset="1" stop-color="white" stop-opacity="0.04"/>
</linearGradient>
<clipPath id="clip0_2_3725">
<rect width="56" height="56" fill="white"/>
</clipPath>
</defs>
</svg>
