<svg width="201" height="162" viewBox="0 0 201 162" fill="none" xmlns="http://www.w3.org/2000/svg">
    <path d="M39.7305 146.395L38.1663 158.178C37.9515 159.785 36.585 160.98 34.9607 160.98H31.1105C30.4402 160.98 29.8128 160.774 29.2972 160.421C28.5581 159.923 28.0424 159.115 27.9135 158.178L26.3494 146.395H39.7305Z" fill="url(#paint0_linear_2_4245)"/>
    <path d="M39.7305 146.394L38.1664 158.176C37.9515 159.783 36.5851 160.978 34.9608 160.978H31.1106C30.4403 160.978 29.8129 160.772 29.2972 160.42C29.5207 160.351 29.7527 160.273 29.9676 160.179C31.0333 159.732 32.013 158.976 32.4685 157.91C32.8294 157.085 32.838 156.166 32.9755 155.28C33.1388 154.206 33.4912 153.166 33.835 152.135C34.2217 150.983 34.6084 149.831 35.1499 148.731C35.5538 147.906 36.0351 147.124 36.5937 146.385H39.7305V146.394Z" fill="#4DC591"/>
    <path d="M39.7301 146.499C39.7301 147.299 36.7393 147.943 33.0438 147.943C29.3483 147.943 26.3575 147.299 26.3575 146.499C26.3575 145.7 29.3483 145.056 33.0438 145.056C36.7393 145.056 39.7301 145.7 39.7301 146.499Z" fill="#41446B"/>
    <path d="M39.7295 146.498C39.7295 147.143 37.7701 147.693 35.0629 147.874C34.7965 147.891 34.5215 147.908 34.2293 147.916C34.1175 147.925 34.0058 147.925 33.8941 147.925C33.7308 147.925 33.5589 147.934 33.387 147.942H32.7597C29.2017 147.899 26.3656 147.281 26.3656 146.498C26.3656 145.699 29.3564 145.055 33.0519 145.055C33.155 145.055 33.2667 145.055 33.3698 145.063C33.4042 145.055 33.43 145.063 33.4644 145.063C33.6362 145.063 33.791 145.072 33.9542 145.072C34.0832 145.072 34.2121 145.08 34.3324 145.089C34.573 145.106 34.8137 145.115 35.0457 145.132C35.2778 145.149 35.5012 145.166 35.7246 145.192C38.0794 145.398 39.7295 145.905 39.7295 146.498Z" fill="#2E34A5"/>
    <path d="M34.36 131.896C33.5006 130.418 32.6068 128.948 31.6958 127.504C28.43 122.339 24.8033 117.406 20.8586 112.74C19.9476 111.665 19.028 110.591 18.2115 109.439C17.5068 108.434 15.3583 105.391 16.106 103.905C16.1576 103.793 16.2349 103.69 16.3208 103.604C17.6701 102.22 20.9875 104.137 21.9414 105.202C22.5173 105.847 22.947 106.612 23.5485 107.231C24.7603 108.468 26.5307 108.967 27.9488 109.955C30.5012 111.734 31.67 114.862 32.6927 117.801C33.217 119.314 33.7498 120.827 34.0678 122.391C34.7124 125.502 34.5319 128.716 34.36 131.896Z" fill="url(#paint1_linear_2_4245)"/>
    <path d="M31.6867 127.505C28.4209 122.339 24.7941 117.407 20.8494 112.74C19.9384 111.666 19.0189 110.591 18.2024 109.44C17.4977 108.434 15.3491 105.392 16.0968 103.905C16.7672 104.352 17.4289 104.954 17.7555 105.246C18.6665 106.062 19.4486 107.033 20.0244 108.116C20.4799 108.976 20.858 109.938 21.6401 110.523C22.4823 111.141 23.6683 111.219 24.416 111.958C25.1723 112.706 25.2324 113.874 25.6106 114.863C26.1005 116.169 27.1489 117.166 27.974 118.292C29.5209 120.389 30.303 122.941 31.0593 125.434C31.2827 126.113 31.489 126.808 31.6867 127.505Z" fill="url(#paint2_linear_2_4245)"/>
    <path d="M34.3335 145.07V145.148C34.3077 146.067 34.1702 147.038 33.8866 147.924C33.7233 147.924 33.5514 147.932 33.3796 147.941H33.0014C33.2335 147.004 33.3538 146.033 33.371 145.062C33.3967 143.936 33.2678 142.81 32.9928 141.727C32.4256 139.476 31.1021 137.688 29.7958 135.754H30.0966C30.8786 136.742 31.8068 137.516 32.4342 138.608C33.5772 140.576 34.3593 142.801 34.3335 145.07Z" fill="url(#paint3_linear_2_4245)"/>
    <path d="M30.8533 136.621C30.2603 136.08 29.4868 135.143 29.0571 134.464C28.6274 133.785 28.3438 133.029 27.9657 132.315C26.625 129.797 24.2014 128.001 21.5888 126.867C19.5004 125.956 17.2745 125.431 15.0314 124.993C13.579 124.701 12.075 124.727 10.6398 125.096C9.55694 125.38 8.98113 125.724 8.68034 126.033C8.26782 126.463 8.37096 126.815 8.37096 126.815C8.37096 126.815 10.5281 128.732 11.7313 129.368C14.9885 131.112 18.2456 132.865 21.4942 134.61C21.7091 134.73 21.924 134.842 22.1388 134.954C23.6772 135.779 25.2843 136.621 27.0289 136.656C27.8711 136.673 28.6962 136.501 29.5384 136.492C29.8994 136.492 30.2775 136.527 30.6385 136.621H30.8533Z" fill="url(#paint4_linear_2_4245)"/>
    <path d="M21.4939 134.619C18.2367 132.874 14.9795 131.121 11.7309 129.376C10.5363 128.732 8.37061 126.824 8.37061 126.824C8.37061 126.824 8.25887 126.471 8.67999 126.042C9.23001 126.016 9.78865 126.085 10.2012 126.136C11.4215 126.291 12.5989 126.669 13.699 127.219C15.8389 128.302 17.6351 129.969 19.2164 131.765C20.0157 132.685 20.7806 133.63 21.4939 134.619Z" fill="url(#paint5_linear_2_4245)"/>
    <path d="M36.7055 147.666H37.1524C34.8406 140.782 34.3421 137.035 34.3421 133.288C34.3421 131.896 34.4023 130.452 33.921 129.146C33.8007 131.312 33.8179 133.495 33.9726 135.66C34.1101 137.594 34.3679 139.528 34.7288 141.427C34.9093 142.372 35.1156 143.309 35.3476 144.246C35.3476 144.289 35.3562 144.349 36.7055 147.666Z" fill="url(#paint6_linear_2_4245)"/>
    <path d="M34.0929 137.498C34.8664 136.157 35.6743 134.842 36.4993 133.536C39.4471 128.878 42.7215 124.426 46.2794 120.215C47.1045 119.243 47.9381 118.273 48.6686 117.233C49.3046 116.33 51.2469 113.58 50.568 112.239C50.5164 112.145 50.4562 112.05 50.3703 111.965C49.1585 110.71 46.1591 112.446 45.2997 113.408C44.7841 113.993 44.3973 114.68 43.8473 115.239C42.7558 116.356 41.1573 116.803 39.8768 117.697C37.5736 119.304 36.5251 122.123 35.5969 124.778C35.1242 126.145 34.643 127.511 34.3508 128.921C33.7835 131.731 33.9382 134.636 34.0929 137.498Z" fill="url(#paint7_linear_2_4245)"/>
    <path d="M36.5076 133.534C39.4554 128.876 42.7298 124.424 46.2877 120.213C47.1128 119.242 47.9464 118.271 48.6769 117.231C49.3129 116.329 51.2552 113.578 50.5762 112.238C49.966 112.642 49.373 113.183 49.0808 113.45C48.2558 114.189 47.5511 115.065 47.0268 116.045C46.6143 116.819 46.2706 117.686 45.5658 118.21C44.8009 118.769 43.7353 118.838 43.0649 119.508C42.386 120.179 42.3258 121.236 41.9907 122.129C41.5438 123.307 40.5984 124.209 39.8507 125.223C38.4585 127.114 37.7451 129.417 37.0662 131.669C36.8771 132.279 36.688 132.907 36.5076 133.534Z" fill="url(#paint8_linear_2_4245)"/>
    <path d="M34.2303 147.914C34.514 147.905 34.789 147.888 35.064 147.871C35.1241 147.364 35.2101 146.865 35.3304 146.367C35.4335 145.954 35.571 145.551 35.7257 145.164C36.3273 143.66 37.2813 142.362 38.2095 140.97H37.943C37.2297 141.864 36.4047 142.56 35.8288 143.548C35.5366 144.047 35.2788 144.571 35.0468 145.103C34.6601 146.014 34.3764 146.951 34.2303 147.914Z" fill="url(#paint9_linear_2_4245)"/>
    <path d="M37.2642 141.771C37.8056 141.281 38.4931 140.439 38.8799 139.82C39.2666 139.201 39.5244 138.522 39.8682 137.886C41.08 135.617 43.2629 133.993 45.6263 132.962C47.517 132.145 49.5194 131.673 51.5477 131.269C52.8626 131.011 54.2205 131.028 55.5096 131.363C56.4893 131.621 57.005 131.93 57.2714 132.214C57.6495 132.601 57.5464 132.919 57.5464 132.919C57.5464 132.919 55.5955 134.646 54.5127 135.222C51.5735 136.803 48.6342 138.376 45.695 139.958C45.4974 140.061 45.3083 140.164 45.1106 140.267C43.727 141.014 42.2746 141.771 40.7018 141.805C39.9455 141.822 39.1979 141.668 38.433 141.659C38.1064 141.659 37.7626 141.693 37.4446 141.771H37.2642Z" fill="url(#paint10_linear_2_4245)"/>
    <path d="M45.7037 139.957C48.6429 138.384 51.5821 136.803 54.5213 135.221C55.6042 134.646 57.5551 132.918 57.5551 132.918C57.5551 132.918 57.6582 132.6 57.2801 132.213C56.7902 132.188 56.2832 132.256 55.905 132.299C54.805 132.437 53.7393 132.781 52.7509 133.279C50.8173 134.259 49.2016 135.763 47.7663 137.387C47.0358 138.212 46.3483 139.072 45.7037 139.957Z" fill="url(#paint11_linear_2_4245)"/>
    <path d="M32.7522 147.931H33.3796C33.5257 147.33 33.646 146.72 33.7663 146.101C33.8351 145.748 33.8952 145.405 33.9554 145.053C34.1874 143.677 34.3507 142.285 34.4539 140.893C34.5914 138.933 34.6171 136.974 34.5054 135.014C34.0671 136.192 34.1273 137.489 34.1273 138.744C34.1273 140.669 33.9812 142.603 33.4655 145.044C33.2764 145.938 33.0444 146.891 32.7522 147.931Z" fill="url(#paint12_linear_2_4245)"/>
    <path d="M131.439 9.03467H64.0608C62.6342 9.03467 61.474 10.1947 61.474 11.6213V97.7695C61.474 99.1961 62.6342 100.356 64.0608 100.356H131.439C132.866 100.356 134.026 99.1961 134.026 97.7695V11.6213C134.026 10.1947 132.874 9.03467 131.439 9.03467Z" fill="url(#paint13_linear_2_4245)"/>
    <path d="M126.068 4.91724H58.6896C57.263 4.91724 56.1028 6.07725 56.1028 7.50388V93.652C56.1028 95.0787 57.263 96.2387 58.6896 96.2387H126.068C127.495 96.2387 128.655 95.0787 128.655 93.652V7.50388C128.655 6.06865 127.503 4.91724 126.068 4.91724Z" fill="#C8C8EE"/>
    <path d="M126.91 9.8501H58.6896V98.2668H126.91V9.8501Z" fill="#DADAF5"/>
    <path d="M121.965 6.18336L53.7578 7.50684L55.4731 95.9059L123.68 94.5824L121.965 6.18336Z" fill="#EAEAFA"/>
    <path d="M101.934 0.870037L34.9205 13.6614L51.4987 100.513L118.512 87.7218L101.934 0.870037Z" fill="#F6F6FE"/>
    <path d="M96.2889 13.6654C95.6701 10.7004 92.7996 8.75806 89.8002 9.29949C86.7493 9.84952 84.7211 12.7716 85.2711 15.8311C85.8212 18.8821 88.7432 20.9103 91.7941 20.3603C94.8536 19.8103 96.8819 16.8884 96.3404 13.8374C96.3232 13.7773 96.3147 13.7256 96.2889 13.6654Z" fill="white"/>
    <path d="M96.7704 13.5715L96.8047 13.778C97.4149 17.1727 95.1547 20.4471 91.7256 21.0658L90.574 14.6886L96.7704 13.5715Z" fill="url(#paint14_linear_2_4245)"/>
    <path d="M84.6782 16.8376L84.6095 16.6488C83.4321 13.4002 85.1079 9.79933 88.3737 8.60474L90.5824 14.6891L84.6782 16.8376Z" fill="url(#paint15_linear_2_4245)"/>
    <path d="M70.9191 25.6084L41.1489 30.9714L41.4412 32.5009L71.1942 27.1384L70.9191 25.6084Z" fill="#BBC2E9"/>
    <path d="M103.379 26.6238L103.087 25.0942L42.0684 36.0862L42.3606 37.6158L103.379 26.6238Z" fill="#BBC2E9"/>
    <path d="M104.307 31.7374L104.015 30.199L42.988 41.1909L43.2802 42.7205L104.307 31.7374Z" fill="#BBC2E9"/>
    <path d="M105.227 36.8437L104.935 35.3137L43.9077 46.3057L44.1999 47.8357L105.227 36.8437Z" fill="#BBC2E9"/>
    <path d="M106.147 41.9554L105.855 40.4258L44.8274 51.4178L45.1196 52.9473L106.147 41.9554Z" fill="#BBC2E9"/>
    <path d="M107.066 47.0699L106.774 45.5403L45.7468 56.5323L46.039 58.0618L107.066 47.0699Z" fill="#BBC2E9"/>
    <path d="M107.986 52.1746L107.694 50.645L46.675 61.637L46.9672 63.1666L107.986 52.1746Z" fill="#BBC2E9"/>
    <path d="M58.7678 85.0223L58.108 85.1411L59.6172 93.5235L60.277 93.4047L58.7678 85.0223Z" fill="#BBC2E9"/>
    <path d="M66.2367 80.2977L65.577 80.4165L67.625 91.7838L68.2847 91.6649L66.2367 80.2977Z" fill="#BBC2E9"/>
    <path d="M74.0498 76.1714L73.3816 76.2917L75.9674 90.6458L76.6356 90.5254L74.0498 76.1714Z" fill="#BBC2E9"/>
    <path d="M81.7203 71.6424L81.0605 71.7612L84.184 89.1092L84.8437 88.9904L81.7203 71.6424Z" fill="#BBC2E9"/>
    <path d="M89.2689 66.8948L88.6093 67.0137L92.2723 87.3456L92.932 87.2267L89.2689 66.8948Z" fill="#BBC2E9"/>
    <path d="M97.0723 62.7008L96.4126 62.8196L100.611 86.1392L101.271 86.0204L97.0723 62.7008Z" fill="#BBC2E9"/>
    <path d="M104.629 57.9627L103.97 58.0815L108.708 84.3845L109.368 84.2657L104.629 57.9627Z" fill="#BBC2E9"/>
    <path d="M71.8212 88.6068C71.6665 88.6326 71.5119 88.6585 71.3572 88.6757C69.3118 88.9421 67.2577 88.5467 65.2725 88.1599L65.1092 88.1255C62.9521 87.713 61.0098 87.395 59.1019 87.7302H59.0933C56.9619 88.117 55.2259 89.4318 54.6587 91.0819C54.5985 91.2537 54.4094 91.3485 54.229 91.2883C54.0485 91.2282 53.9626 91.0391 54.0227 90.8586C54.8048 88.5812 57.0908 87.3948 58.973 87.0596H58.9815C61.0012 86.6987 63.0036 87.0256 65.2295 87.4554L65.3928 87.4893C67.3265 87.8589 69.3203 88.2459 71.2626 87.9967C75.1214 87.4982 78.2411 84.5675 81.0342 81.4822L81.4639 81.0009C84.1109 78.0703 86.8524 75.0365 90.6167 73.8419C92.5418 73.2317 94.6216 73.1459 96.6326 73.0685C99.4429 72.9568 102.107 72.8535 104.324 71.4097C106.078 70.2667 107.444 68.2474 108.166 65.7379C108.819 63.4518 108.879 61.9905 108.982 59.5755C108.991 59.3864 109.146 59.249 109.335 59.249C109.524 59.2576 109.661 59.4124 109.661 59.6015C109.567 61.9821 109.498 63.5549 108.819 65.9183C108.054 68.5911 106.593 70.7395 104.703 71.977C102.331 73.524 99.4515 73.6358 96.667 73.7475C94.6989 73.8248 92.6707 73.9021 90.8315 74.4865C87.2392 75.6295 84.5578 78.5948 81.9709 81.4566L81.5412 81.9375C78.7653 85.0057 75.6714 87.9107 71.8212 88.6068Z" fill="#4DC591"/>
    <path d="M100.199 73.241C100.345 74.0489 99.8125 74.8138 99.0047 74.9599C98.1968 75.106 97.4319 74.573 97.2858 73.7652C97.1397 72.9573 97.6726 72.1924 98.4804 72.0463C99.2797 71.9002 100.053 72.4332 100.199 73.241Z" fill="#212785"/>
    <path d="M92.1636 73.9882C92.3097 74.796 91.7769 75.5609 90.969 75.707C90.1612 75.8531 89.3963 75.3206 89.2502 74.5127C89.1041 73.7049 89.6369 72.94 90.4447 72.7939C91.244 72.6478 92.0175 73.1803 92.1636 73.9882Z" fill="#212785"/>
    <path d="M84.4462 79.9597C84.5923 80.7676 84.0595 81.5325 83.2516 81.6786C82.4438 81.8247 81.6789 81.2917 81.5328 80.4839C81.3867 79.676 81.9195 78.9111 82.7274 78.765C83.5266 78.6189 84.3001 79.1605 84.4462 79.9597Z" fill="#212785"/>
    <path d="M77.2269 86.9724C77.373 87.7803 76.8402 88.5452 76.0324 88.6913C75.2245 88.8374 74.4596 88.3044 74.3135 87.4966C74.1674 86.6887 74.7003 85.9238 75.5081 85.7777C76.3074 85.6316 77.0808 86.1732 77.2269 86.9724Z" fill="#212785"/>
    <path d="M69.011 88.45C69.1571 89.2579 68.6243 90.0228 67.8164 90.1689C67.0086 90.315 66.2437 89.7824 66.0976 88.9746C65.9515 88.1667 66.4843 87.4019 67.2922 87.2558C68.0915 87.1182 68.8649 87.6508 69.011 88.45Z" fill="#212785"/>
    <path d="M60.3395 87.4283C60.4856 88.2361 59.9528 89.001 59.1449 89.1471C58.3371 89.2932 57.5722 88.7603 57.4261 87.9524C57.28 87.1446 57.8128 86.3797 58.6207 86.2336C59.4285 86.0875 60.1934 86.6204 60.3395 87.4283Z" fill="#212785"/>
    <path d="M52.9229 65.2558C49.0126 69.338 42.5498 69.4752 38.4675 65.5735C34.3939 61.6717 34.2478 55.2004 38.1581 51.1182C42.0599 47.0446 48.5313 46.9072 52.6135 50.8089C56.6872 54.7021 56.8247 61.1822 52.9229 65.2558Z" fill="white"/>
    <path d="M52.9229 65.257C56.8247 61.1833 56.6872 54.7117 52.6135 50.8013C48.5399 46.891 42.0599 47.0374 38.1581 51.111C34.2478 55.1932 34.3939 61.6645 38.4675 65.5662C42.5498 69.4766 49.0212 69.3392 52.9229 65.257ZM39.4645 52.3657C42.6787 49.0054 48.0071 48.8934 51.3674 52.1076C54.7277 55.3219 54.8394 60.6503 51.6252 64.0106C48.411 67.371 43.0826 67.4829 39.7223 64.2687C36.362 61.0545 36.2416 55.726 39.4645 52.3657Z" fill="#6CD0A4"/>
    <path d="M50.4651 62.9029C53.0691 60.1785 52.9746 55.8645 50.2588 53.2604C47.5345 50.6564 43.2202 50.7507 40.6162 53.4665C38.0121 56.1908 38.1067 60.5053 40.8224 63.1093C43.5468 65.7219 47.8611 65.6272 50.4651 62.9029ZM41.9139 54.7128C43.8304 52.7104 47.0102 52.6415 49.0127 54.558C51.0151 56.4745 51.0839 59.6545 49.1674 61.657C47.2509 63.6594 44.071 63.7279 42.0686 61.8114C40.0661 59.8949 39.9974 56.7152 41.9139 54.7128Z" fill="#6CD0A4"/>
    <path d="M47.9898 60.5302C49.2875 59.1809 49.2359 57.0323 47.8866 55.7346C46.5288 54.4369 44.3802 54.4885 43.0911 55.8378C41.7934 57.1957 41.8449 59.3439 43.1942 60.633C44.5435 61.9307 46.692 61.8881 47.9898 60.5302ZM44.6037 57.2902C45.0935 56.7745 45.9186 56.7573 46.4342 57.2558C46.9499 57.7456 46.9671 58.5706 46.4772 59.0862C45.9873 59.6019 45.1623 59.6189 44.6466 59.129C44.131 58.6306 44.1138 57.8058 44.6037 57.2902Z" fill="#6CD0A4"/>
    <path d="M28.7819 74.8139L29.2116 74.393L29.1256 76.4988L29.8132 75.8282L29.8991 73.7229L30.3546 73.276L30.2945 74.8744L30.8445 74.3414L30.9046 72.743L42.0341 61.8543C42.6528 62.5762 42.8505 63.6675 42.6614 65.1199L44.8272 58.8635L38.5363 60.8916C40.0145 60.7627 41.0887 61.0032 41.7762 61.5962L30.6554 72.4677L29.0569 72.5022L28.5068 73.0351L30.1054 73.0007L29.6241 73.4564L27.5357 73.4908L26.8482 74.161L28.9366 74.1266L28.5068 74.5563L25.7911 74.5991L24.9231 75.4417L27.9311 75.3901L27.8107 78.372L28.6787 77.5298L28.7819 74.8139Z" fill="#404466"/>
    <path d="M149.693 160.67H134.507L132.083 136.262H152.125L149.693 160.67ZM135.495 159.578H148.705L150.913 137.353H133.287L135.495 159.578Z" fill="#EAEAFA"/>
    <path d="M139.841 136.368L133.02 145.806L133.34 146.037L140.162 136.6L139.841 136.368Z" fill="#EAEAFA"/>
    <path d="M143.994 136.395L133.613 149.834L133.926 150.076L144.307 136.636L143.994 136.395Z" fill="#EAEAFA"/>
    <path d="M147.609 136.551L133.882 153.578L134.189 153.826L147.916 136.799L147.609 136.551Z" fill="#EAEAFA"/>
    <path d="M151.141 136.986L134.327 156.632L134.627 156.889L151.441 137.243L151.141 136.986Z" fill="#EAEAFA"/>
    <path d="M150.712 142.136L134.679 159.977L134.973 160.241L151.006 142.4L150.712 142.136Z" fill="#EAEAFA"/>
    <path d="M150.797 145.957L137.607 160.016L137.896 160.286L151.085 146.228L150.797 145.957Z" fill="#EAEAFA"/>
    <path d="M140.764 160.341L140.48 160.067L150.38 149.96L150.664 150.235L140.764 160.341Z" fill="#EAEAFA"/>
    <path d="M149.885 153.696L143.309 160.124L143.585 160.406L150.161 153.978L149.885 153.696Z" fill="#EAEAFA"/>
    <path d="M144.302 136.42L143.983 136.653L150.864 146.059L151.183 145.826L144.302 136.42Z" fill="#EAEAFA"/>
    <path d="M140.397 136.582L140.084 136.824L150.47 150.261L150.783 150.019L140.397 136.582Z" fill="#EAEAFA"/>
    <path d="M136.42 136.583L136.114 136.832L149.922 153.794L150.228 153.545L136.42 136.583Z" fill="#EAEAFA"/>
    <path d="M132.814 136.949L132.513 137.206L149.322 156.857L149.623 156.6L132.814 136.949Z" fill="#EAEAFA"/>
    <path d="M133.305 141.889L133.011 142.153L149.024 160.011L149.318 159.747L133.305 141.889Z" fill="#EAEAFA"/>
    <path d="M133.568 145.761L133.28 146.032L146.463 160.084L146.752 159.813L133.568 145.761Z" fill="#EAEAFA"/>
    <path d="M143.436 160.34L133.536 150.234L133.819 149.959L143.711 160.066L143.436 160.34Z" fill="#EAEAFA"/>
    <path d="M140.48 160.348L133.914 153.911L134.198 153.627L140.764 160.064L140.48 160.348Z" fill="#EAEAFA"/>
    <path d="M154.678 135.986C154.678 136.364 154.523 136.708 154.274 136.948C154.024 137.198 153.681 137.352 153.303 137.352H130.889C130.133 137.352 129.514 136.742 129.514 135.986C129.514 135.608 129.669 135.264 129.918 135.023C130.167 134.774 130.511 134.619 130.889 134.619H153.303C154.059 134.619 154.678 135.229 154.678 135.986Z" fill="#EAEAFA"/>
    <path opacity="0.3" d="M92.7999 134.406V140.894C92.7999 141.264 92.4991 141.565 92.1295 141.565H79.1179C78.7484 141.565 78.4476 141.264 78.4476 140.894V134.406C78.4476 134.028 78.7484 133.735 79.1179 133.735H92.1295C92.4991 133.735 92.7999 134.036 92.7999 134.406Z" fill="url(#paint16_linear_2_4245)"/>
    <path opacity="0.3" d="M112.403 117.999V124.488C112.403 124.857 112.102 125.158 111.733 125.158H98.7212C98.3517 125.158 98.0509 124.857 98.0509 124.488V117.999C98.0509 117.629 98.3517 117.329 98.7212 117.329H111.733C112.102 117.329 112.403 117.629 112.403 117.999Z" fill="url(#paint17_linear_2_4245)"/>
    <path d="M168.059 145.459L164.252 145.425C163.934 148.106 166.099 153.899 162.473 155.506C158.038 157.474 156.216 158.187 155.296 160.619C155.193 160.903 155.391 161.204 155.692 161.212L168.385 161.341C168.652 161.341 168.858 161.109 168.806 160.852C168.566 159.614 167.449 147.711 168.059 145.459Z" fill="#212785"/>
    <path d="M188.547 145.389H184.74C184.448 148.079 186.665 153.846 183.055 155.488C178.638 157.499 176.825 158.221 175.931 160.67C175.828 160.954 176.025 161.254 176.326 161.254L189.02 161.263C189.286 161.263 189.484 161.031 189.432 160.764C189.183 159.536 187.954 147.641 188.547 145.389Z" fill="#212785"/>
    <path d="M163.289 149.445C163.427 149.771 165.988 149.857 167.552 149.874C168.248 149.883 168.747 149.883 168.747 149.883L171.909 128.905C172.081 127.375 172.339 125.862 172.631 124.349C173.972 117.371 174.84 89.2078 174.84 89.2078L177.71 89.1738C177.71 89.1738 180.469 112.18 180.899 118.574C180.967 119.597 181.122 120.603 181.311 121.617C181.518 122.708 181.569 123.524 181.457 125.192C181.294 127.607 183.649 150.295 183.649 150.295L189.055 149.926C189.055 149.926 189.098 122.588 188.711 116.864C188.376 111.94 189.184 85.6843 189.416 78.4223C189.416 78.3105 189.424 78.2073 189.424 78.1042C189.459 77.1158 189.476 76.5486 189.476 76.5486L189.141 76.5658L165.403 77.2276C165.403 77.2276 165.395 77.5111 165.378 78.0354C165.369 78.233 165.36 78.4737 165.352 78.7487V78.7832C165.352 78.8433 165.352 78.9034 165.352 78.9636C165.335 79.5308 165.309 80.2273 165.292 81.0265C165.068 88.5292 164.544 104.978 164.278 109.748C163.882 116.013 163.1 148.989 163.289 149.445Z" fill="#9BA1FF"/>
    <path d="M165.154 149.488C164.939 148.972 165.738 115.919 166.117 109.739C166.435 104.248 167.062 83.3812 167.139 81.0178C167.165 80.2186 167.182 79.5225 167.199 78.9553L167.423 78.9637C167.406 79.5309 167.38 80.2274 167.363 81.0267C167.294 83.39 166.658 104.256 166.34 109.757C165.927 116.555 165.206 148.74 165.36 149.41L165.154 149.488Z" fill="#E4E8FD"/>
    <path d="M187.241 149.936H187.018C187.018 149.661 187.052 122.537 186.665 116.882C186.321 111.795 187.198 83.6917 187.379 78.1055L187.43 76.6703L187.207 76.6791L187.198 76.4554L187.654 76.4382L187.593 78.1055C187.413 83.6831 186.536 111.778 186.88 116.857C187.275 122.529 187.241 149.661 187.241 149.936Z" fill="#E4E8FD"/>
    <path d="M181.311 121.618C181.113 120.613 180.967 119.599 180.898 118.576C180.486 112.474 177.933 91.066 177.71 89.1838L180.417 89.2527C181.122 90.6965 181.672 92.441 181.809 94.0739C182.196 98.5944 182.265 103.141 182.334 107.67C182.574 124.274 184.207 133.633 184.465 150.237L183.648 150.288C183.648 150.288 181.294 127.6 181.457 125.185C181.569 123.518 181.517 122.71 181.311 121.618Z" fill="#868CF6"/>
    <path d="M171.497 118.961C172.837 109.241 174.479 98.7993 172.786 89.2083H174.831C174.728 92.3193 173.886 117.81 172.631 124.35C172.339 125.862 172.09 127.375 171.909 128.905L168.746 149.883C168.746 149.883 168.248 149.883 167.552 149.875C168.446 137.19 169.761 131.56 171.497 118.961Z" fill="#868CF6"/>
    <path d="M165.335 79.703C167.097 80.2015 170.104 81.3701 175.553 81.0005C179.747 80.7169 186.717 80.5622 189.407 78.4223C189.407 78.3105 189.416 78.2073 189.416 78.1042C189.45 77.1158 189.467 76.5486 189.467 76.5486L189.132 76.5658C186.451 78.7917 179.558 78.4567 175.373 78.7403C170.001 79.1013 167.139 78.8088 165.378 78.0354C165.378 78.0354 165.369 78.0354 165.361 78.0354C165.352 78.3018 165.352 78.5167 165.352 78.7487V78.7832C165.352 79.0324 165.343 79.2991 165.335 79.703Z" fill="#212785"/>
    <path d="M180.482 81.6818L181.203 81.6326L180.901 77.2168L180.18 77.2661L180.482 81.6818Z" fill="#5E72FA"/>
    <path d="M170.417 82.6058L171.137 82.5566L170.836 78.1409L170.116 78.1901L170.417 82.6058Z" fill="#5E72FA"/>
    <path d="M173.774 81.4637L173.688 80.1318C173.662 79.7193 173.972 79.3665 174.384 79.3408L176.937 79.1775C177.349 79.1517 177.702 79.4612 177.727 79.8737L177.813 81.2061C177.839 81.6186 177.53 81.9709 177.117 81.9966L174.565 82.1599C174.152 82.1857 173.8 81.8762 173.774 81.4637ZM174.393 79.5988C174.126 79.616 173.92 79.8482 173.937 80.1146L174.023 81.4465C174.04 81.7129 174.273 81.919 174.539 81.9018L177.091 81.7386C177.358 81.7214 177.564 81.4897 177.547 81.2233L177.461 79.8909C177.444 79.6245 177.212 79.4184 176.945 79.4356L174.393 79.5988Z" fill="#E4E8FD"/>
    <path d="M176.3 87.2192L176.557 87.2017L176.195 81.8854L175.938 81.9029L176.3 87.2192Z" fill="#E4E8FD"/>
    <path d="M151.042 49.7806C151.042 49.7806 157.256 60.5319 161.089 60.5061C162.662 60.4975 164.819 58.0998 166.271 56.2263C166.349 56.1231 166.417 56.0373 166.495 55.9342C167.071 55.1521 167.518 54.5075 167.732 54.1809C167.741 54.2841 167.758 54.327 167.758 54.327L167.672 54.9371L167.509 56.0802L167.44 56.5788L164.458 77.2564C164.57 80.4534 189.544 79.594 189.433 76.397C188.745 55.8397 194.409 41.4102 191.341 38.0241C190.98 37.6287 189.785 35.1192 183.958 33.0824C183.803 33.0395 183.657 33.0048 183.503 32.9704C183.494 32.9704 183.468 32.962 183.46 32.962C181.767 32.601 180.048 32.4119 178.312 32.4291C178.002 32.4291 177.684 32.4379 177.375 32.4551C177.212 32.4637 177.04 32.4633 176.859 32.4891C176.112 32.5234 175.355 32.6008 174.591 32.7211C170.826 33.2883 167.062 34.8699 165.902 38.7631L165.816 38.9607L159.98 53.1667L152.349 48.2683L151.042 49.7806Z" fill="url(#paint18_linear_2_4245)"/>
    <path d="M167.492 56.0978L167.328 56.6995L167.552 56.4758L169.709 47.3748L166.486 55.9429C167.062 55.1608 167.509 54.5162 167.724 54.1897C167.732 54.2928 167.749 54.3361 167.749 54.3361L167.663 54.9463L167.492 56.0978Z" fill="#FF4F7C"/>
    <path d="M191.117 37.5679C188.651 35.9436 185.488 38.0321 183.992 41.9338C183.09 44.2972 180.881 51.5506 180.881 51.5506L166.203 44.8558L165.283 47.9753C165.283 47.9753 177.255 60.2136 182.996 60.1448C185.488 60.119 190.696 50.064 191.848 46.0677C192.819 42.7073 193.059 38.8484 191.117 37.5679Z" fill="url(#paint19_linear_2_4245)"/>
    <path d="M154.79 52.248L162.507 51.9988C162.885 51.9902 163.117 51.5862 162.945 51.251L155.03 35.9963C154.936 35.8159 154.738 35.7043 154.532 35.7215L146.977 36.3144C146.608 36.3402 146.393 36.7356 146.565 37.0622L154.317 51.9732C154.411 52.1451 154.6 52.248 154.79 52.248Z" fill="#DADAF5"/>
    <path d="M162.438 42.4762C162.438 42.4762 159.482 41.1011 159.112 42.2785C158.734 43.4559 161.209 44.0578 161.209 44.0578L162.438 42.4762Z" fill="#E7ABAB"/>
    <path d="M161.416 42.191C161.416 42.191 158.58 42.5436 159.542 45.225C160.513 47.9064 165.283 47.9749 165.283 47.9749L166.203 44.8553C166.203 44.8553 164.888 42.2343 164.14 41.6413C162.851 40.6272 157.797 39.5186 157.497 40.189C157.058 41.1859 161.416 42.191 161.416 42.191Z" fill="#EABCBC"/>
    <path d="M154.936 47.9926C155.391 49.3504 153.947 51.0611 151.713 51.8088C149.478 52.565 147.82 47.649 150.063 46.8927C152.297 46.145 154.48 46.6433 154.936 47.9926Z" fill="#EABCBC"/>
    <path d="M176.249 32.0592L176.181 35.3509C176.181 37.0096 177.771 38.2128 179.73 38.0152C181.724 37.8175 183.279 36.3394 183.279 34.6463C183.279 34.6033 183.314 32.9276 183.305 32.8847C183.151 32.8675 183.004 32.8673 182.85 32.8587C182.841 32.8587 182.781 34.4743 182.772 34.4743C181.079 34.4485 179.36 34.5948 177.624 34.9472C177.315 35.0074 177.074 31.8445 176.757 31.9132C176.593 31.9734 176.43 31.9991 176.249 32.0592Z" fill="white"/>
    <path d="M182.815 33.0494V34.3986H182.79C182.781 34.579 182.781 34.6995 182.781 34.7167C182.781 36.0745 181.414 37.3121 179.73 37.4753C178.046 37.6386 176.679 36.6761 176.679 35.3096C176.679 35.2752 176.696 34.3813 176.713 33.8828H176.688L176.722 33.608L176.731 33.5564L177.538 25.9937H182.815V31.253H182.841C182.85 31.2873 182.833 32.1814 182.815 33.0494Z" fill="url(#paint20_linear_2_4245)"/>
    <path d="M178.57 33.8404C180.555 34.0295 182.867 31.116 184.225 28.4347C185.574 26.1916 185.591 24.2577 184.345 24.5757L183.7 18.9295L179.197 17.8296C179.197 17.8296 175.227 18.6803 174.453 19.6945C172.073 22.8141 173.92 33.4021 178.57 33.8404Z" fill="url(#paint21_linear_2_4245)"/>
    <path d="M173.208 21.3002C175.262 22.5894 183.048 21.4118 183.186 21.3602C183.195 21.3602 183.212 21.3945 183.22 21.4547C183.298 22.0648 183.186 25.4595 183.53 25.9666C183.899 26.5252 183.891 25.2961 184.011 24.9867C184.123 24.6774 184.647 22.7354 184.647 22.7354C184.647 22.7354 184.75 21.8414 185.171 21.0594C185.601 20.2773 186.435 18.4466 185.489 17.2348C184.552 16.023 183.366 16.6935 183.366 16.6935C183.366 16.6935 180.659 13.7542 177.797 14.0636C174.936 14.373 176.13 16.4874 176.13 16.4874C176.13 16.4874 174.686 16.1263 173.646 16.3498C173.122 16.4529 172.71 16.7107 172.624 17.2264C172.607 17.2264 171.154 20.0025 173.208 21.3002Z" fill="url(#paint22_linear_2_4245)"/>
    <path d="M173.207 21.3013C175.261 22.5904 183.047 21.4128 183.185 21.3613C183.193 21.3613 183.211 21.3955 183.219 21.4557C183.262 21.4127 183.305 21.3698 183.339 21.3269C183.159 21.1464 182.721 21.2583 182.48 21.2669C182.128 21.2755 181.784 21.2755 181.44 21.2669C180.744 21.2497 180.048 21.2067 179.369 21.0864C177.951 20.8372 176.559 20.2955 175.527 19.3416C174.642 18.5251 174.075 17.4769 173.628 16.3596C173.104 16.4627 172.691 16.7202 172.605 17.2358C172.605 17.2272 171.153 20.0035 173.207 21.3013Z" fill="url(#paint23_linear_2_4245)"/>
    <path d="M183.606 120.355C183.606 119.599 184.216 118.989 184.972 118.989C185.728 118.989 186.339 119.599 186.339 120.355C186.339 121.111 185.728 121.721 184.972 121.721C184.216 121.721 183.606 121.103 183.606 120.355ZM183.812 120.355C183.812 120.991 184.328 121.515 184.972 121.515C185.608 121.515 186.132 120.999 186.132 120.355C186.132 119.71 185.617 119.195 184.972 119.195C184.328 119.195 183.812 119.71 183.812 120.355Z" fill="white"/>
    <path d="M166.924 120.355C166.924 119.599 167.535 118.989 168.291 118.989C169.047 118.989 169.657 119.599 169.657 120.355C169.657 121.111 169.047 121.721 168.291 121.721C167.535 121.721 166.924 121.103 166.924 120.355ZM167.131 120.355C167.131 120.991 167.646 121.515 168.291 121.515C168.927 121.515 169.451 120.999 169.451 120.355C169.451 119.71 168.935 119.195 168.291 119.195C167.655 119.195 167.131 119.71 167.131 120.355Z" fill="white"/>
    <path d="M178.905 30.0314L177.77 30.0486C177.607 30.0486 177.487 29.9024 177.512 29.7477L178.08 27.7968C178.105 27.7022 178.2 27.6335 178.294 27.6335C178.398 27.6335 178.484 27.6937 178.518 27.7968L179.137 29.7221C179.188 29.8682 179.077 30.0228 178.905 30.0314Z" fill="#FC8E8E"/>
    <path d="M178.183 31.6993C178.011 31.6563 177.83 31.5703 177.65 31.45C177.555 31.3898 177.538 31.2611 177.598 31.1751C177.658 31.0806 177.787 31.0634 177.873 31.1235C178.741 31.7165 179.446 30.9949 179.48 30.9691C179.558 30.8918 179.687 30.8829 179.764 30.9603C179.841 31.0376 179.85 31.158 179.773 31.244C179.506 31.519 178.896 31.8969 178.183 31.6993Z" fill="white"/>
    <path d="M179.867 26.3578C179.85 26.564 180.005 26.7531 180.219 26.7703C180.426 26.7875 180.615 26.6331 180.623 26.4182C180.641 26.212 180.486 26.0229 180.271 26.0057C180.065 25.9971 179.884 26.1515 179.867 26.3578Z" fill="#121C7C"/>
    <path d="M175.372 26.0232C175.355 26.2295 175.51 26.4186 175.725 26.4357C175.931 26.4529 176.12 26.2981 176.137 26.0833C176.154 25.877 176 25.6879 175.785 25.6708C175.579 25.6622 175.39 25.817 175.372 26.0232Z" fill="#121C7C"/>
    <path d="M180.391 24.5144C179.463 24.437 178.63 25.0559 178.406 25.9411C178.277 25.8638 178.157 25.8291 178.037 25.8291C177.968 25.8291 177.891 25.8463 177.822 25.8807C177.736 24.9869 177.014 24.2478 176.086 24.1791C175.046 24.0931 174.135 24.8752 174.049 25.9151C173.963 26.955 174.745 27.8661 175.785 27.952C176.808 28.0294 177.701 27.2815 177.813 26.276C177.891 26.1986 177.959 26.1646 178.037 26.156C178.131 26.156 178.234 26.2075 178.346 26.302C178.286 27.3247 179.059 28.21 180.082 28.2873C181.122 28.3733 182.033 27.5912 182.119 26.5513C182.213 25.5028 181.431 24.5917 180.391 24.5144ZM177.512 26.1816C177.444 27.041 176.687 27.6943 175.819 27.6255C174.96 27.5568 174.307 26.8005 174.376 25.9411C174.444 25.0817 175.201 24.4284 176.069 24.4972C176.937 24.5573 177.581 25.3136 177.512 26.1816ZM181.809 26.5169C181.741 27.3763 180.984 28.0296 180.116 27.9608C179.257 27.8921 178.604 27.1356 178.673 26.2676C178.741 25.4082 179.498 24.7549 180.366 24.8236C181.234 24.8924 181.878 25.6574 181.809 26.5169Z" fill="white"/>
    <path d="M181.913 26.0418C181.861 26.0418 181.809 26.0164 181.775 25.9734C181.723 25.8961 181.749 25.8013 181.818 25.7497L184.181 24.1941C184.25 24.1426 184.353 24.1686 184.405 24.2374C184.456 24.3147 184.431 24.409 184.362 24.4606L181.998 26.0162C181.981 26.0334 181.947 26.0418 181.913 26.0418Z" fill="white"/>
    <path d="M175.02 23.4833C175.605 23.6723 176.361 23.6124 176.902 23.3288C177.023 23.2687 177.014 23.1567 176.885 23.1224C176.593 23.0278 176.258 22.9938 175.931 23.0196C175.605 23.0453 175.278 23.1311 175.012 23.2772C174.883 23.3374 174.891 23.4489 175.02 23.4833Z" fill="#121C7C"/>
    <path d="M180.074 23.5261C180.538 23.9386 181.251 24.1792 181.861 24.1363C181.99 24.1277 182.024 24.0243 181.93 23.9298C181.706 23.7235 181.406 23.5604 181.096 23.4573C180.787 23.3542 180.452 23.3025 180.151 23.3197C180.013 23.3368 179.979 23.4402 180.074 23.5261Z" fill="#121C7C"/>
    <path d="M200.279 161.999H0.661742C0.292192 161.999 0 161.698 0 161.337C0 160.968 0.300786 160.675 0.661742 160.675H200.27C200.639 160.675 200.932 160.976 200.932 161.337C200.94 161.707 200.639 161.999 200.279 161.999Z" fill="#C5CCED"/>
    <defs>
    <linearGradient id="paint0_linear_2_4245" x1="26.3613" y1="153.688" x2="39.7326" y2="153.688" gradientUnits="userSpaceOnUse">
    <stop stop-color="#89DBB7"/>
    <stop offset="1" stop-color="#4DC591"/>
    </linearGradient>
    <linearGradient id="paint1_linear_2_4245" x1="15.9471" y1="117.504" x2="34.5202" y2="117.504" gradientUnits="userSpaceOnUse">
    <stop offset="1.1e-07" stop-color="#F5F5FF"/>
    <stop offset="1" stop-color="#CFCFF2"/>
    </linearGradient>
    <linearGradient id="paint2_linear_2_4245" x1="14.2076" y1="125.392" x2="16.7123" y2="122.887" gradientUnits="userSpaceOnUse">
    <stop offset="1.1e-07" stop-color="#F5F5FF"/>
    <stop offset="1" stop-color="#CFCFF2"/>
    </linearGradient>
    <linearGradient id="paint3_linear_2_4245" x1="29.7943" y1="141.843" x2="34.3372" y2="141.843" gradientUnits="userSpaceOnUse">
    <stop offset="1.1e-07" stop-color="#F5F5FF"/>
    <stop offset="1" stop-color="#CFCFF2"/>
    </linearGradient>
    <linearGradient id="paint4_linear_2_4245" x1="8.04499" y1="129.272" x2="32.2449" y2="132.17" gradientUnits="userSpaceOnUse">
    <stop offset="1.1e-07" stop-color="#F5F5FF"/>
    <stop offset="1" stop-color="#CFCFF2"/>
    </linearGradient>
    <linearGradient id="paint5_linear_2_4245" x1="5.42444" y1="139.986" x2="8.93309" y2="136.477" gradientUnits="userSpaceOnUse">
    <stop offset="1.1e-07" stop-color="#F5F5FF"/>
    <stop offset="1" stop-color="#CFCFF2"/>
    </linearGradient>
    <linearGradient id="paint6_linear_2_4245" x1="37.1447" y1="138.406" x2="33.8301" y2="138.406" gradientUnits="userSpaceOnUse">
    <stop offset="1.1e-07" stop-color="#F5F5FF"/>
    <stop offset="1" stop-color="#CFCFF2"/>
    </linearGradient>
    <linearGradient id="paint7_linear_2_4245" x1="50.7129" y1="124.513" x2="33.951" y2="124.513" gradientUnits="userSpaceOnUse">
    <stop offset="1.1e-07" stop-color="#F5F5FF"/>
    <stop offset="1" stop-color="#CFCFF2"/>
    </linearGradient>
    <linearGradient id="paint8_linear_2_4245" x1="47.3263" y1="126.674" x2="46.0507" y2="125.399" gradientUnits="userSpaceOnUse">
    <stop offset="1.1e-07" stop-color="#F5F5FF"/>
    <stop offset="1" stop-color="#CFCFF2"/>
    </linearGradient>
    <linearGradient id="paint9_linear_2_4245" x1="42.6676" y1="144.446" x2="34.2261" y2="144.446" gradientUnits="userSpaceOnUse">
    <stop stop-color="#E4E8FD"/>
    <stop offset="0.9928" stop-color="#BBC2E9"/>
    </linearGradient>
    <linearGradient id="paint10_linear_2_4245" x1="57.8444" y1="135.136" x2="36.0041" y2="137.752" gradientUnits="userSpaceOnUse">
    <stop offset="1.1e-07" stop-color="#F5F5FF"/>
    <stop offset="1" stop-color="#CFCFF2"/>
    </linearGradient>
    <linearGradient id="paint11_linear_2_4245" x1="56.666" y1="141.263" x2="55.047" y2="139.644" gradientUnits="userSpaceOnUse">
    <stop offset="1.1e-07" stop-color="#F5F5FF"/>
    <stop offset="1" stop-color="#CFCFF2"/>
    </linearGradient>
    <linearGradient id="paint12_linear_2_4245" x1="34.5735" y1="141.477" x2="32.752" y2="141.477" gradientUnits="userSpaceOnUse">
    <stop offset="1.1e-07" stop-color="#F5F5FF"/>
    <stop offset="1" stop-color="#CFCFF2"/>
    </linearGradient>
    <linearGradient id="paint13_linear_2_4245" x1="61.48" y1="54.6934" x2="134.03" y2="54.6934" gradientUnits="userSpaceOnUse">
    <stop offset="2.2e-07" stop-color="#67D0A3"/>
    <stop offset="1" stop-color="#9BA1FF"/>
    </linearGradient>
    <linearGradient id="paint14_linear_2_4245" x1="84.7361" y1="9.34989" x2="102.984" y2="24.6284" gradientUnits="userSpaceOnUse">
    <stop stop-color="#E4E8FD"/>
    <stop offset="0.9928" stop-color="#BBC2E9"/>
    </linearGradient>
    <linearGradient id="paint15_linear_2_4245" x1="83.8158" y1="10.4496" x2="102.062" y2="25.7283" gradientUnits="userSpaceOnUse">
    <stop stop-color="#E4E8FD"/>
    <stop offset="0.9928" stop-color="#BBC2E9"/>
    </linearGradient>
    <linearGradient id="paint16_linear_2_4245" x1="78.4472" y1="137.654" x2="92.8005" y2="137.654" gradientUnits="userSpaceOnUse">
    <stop stop-color="#E4E8FD"/>
    <stop offset="0.9928" stop-color="#BBC2E9"/>
    </linearGradient>
    <linearGradient id="paint17_linear_2_4245" x1="98.0458" y1="121.247" x2="112.403" y2="121.247" gradientUnits="userSpaceOnUse">
    <stop stop-color="#E4E8FD"/>
    <stop offset="0.9928" stop-color="#BBC2E9"/>
    </linearGradient>
    <linearGradient id="paint18_linear_2_4245" x1="157.761" y1="67.221" x2="209.734" y2="17.5522" gradientUnits="userSpaceOnUse">
    <stop stop-color="#4DC591"/>
    <stop offset="1" stop-color="#7BDDB3" stop-opacity="0.35"/>
    </linearGradient>
    <linearGradient id="paint19_linear_2_4245" x1="176.408" y1="66.9578" x2="211.492" y2="29.7783" gradientUnits="userSpaceOnUse">
    <stop stop-color="#4DC591"/>
    <stop offset="1" stop-color="#7BDDB3" stop-opacity="0.35"/>
    </linearGradient>
    <linearGradient id="paint20_linear_2_4245" x1="180.192" y1="26.865" x2="179.527" y2="37.8849" gradientUnits="userSpaceOnUse">
    <stop offset="0.0036036" stop-color="#FCB3B3"/>
    <stop offset="1" stop-color="#FC8E8E"/>
    </linearGradient>
    <linearGradient id="paint21_linear_2_4245" x1="179.336" y1="21.387" x2="179.336" y2="31.3441" gradientUnits="userSpaceOnUse">
    <stop offset="0.0036036" stop-color="#FCB3B3"/>
    <stop offset="1" stop-color="#FC8E8E"/>
    </linearGradient>
    <linearGradient id="paint22_linear_2_4245" x1="172.106" y1="20.0731" x2="185.902" y2="20.0731" gradientUnits="userSpaceOnUse">
    <stop stop-color="#4048C8"/>
    <stop offset="1" stop-color="#2D32A4"/>
    </linearGradient>
    <linearGradient id="paint23_linear_2_4245" x1="181.939" y1="15.1832" x2="180.596" y2="16.5256" gradientUnits="userSpaceOnUse">
    <stop stop-color="#4048C8"/>
    <stop offset="1" stop-color="#2D32A4"/>
    </linearGradient>
    </defs>
    </svg>
    