<svg width="114" height="97" viewBox="0 0 114 97" fill="none" xmlns="http://www.w3.org/2000/svg">
<g id="_x33_d_Model">
<path id="Vector" d="M13.2913 89.7853C19.6091 89.7853 24.7307 88.9943 24.7307 88.0186C24.7307 87.0429 19.6091 86.252 13.2913 86.252C6.97358 86.252 1.85205 87.0429 1.85205 88.0186C1.85205 88.9943 6.97358 89.7853 13.2913 89.7853Z" fill="#F6F6FE"/>
<path id="Vector_2" d="M28.5908 34.7078L30.5869 34.5614C31.2116 34.5175 31.7533 34.986 31.8021 35.6058L31.8119 35.7229C31.8558 36.3476 31.3873 36.8893 30.7675 36.9332L28.7714 37.0796C28.1516 37.1236 27.605 36.6599 27.5611 36.0353L27.5513 35.9181C27.5025 35.2935 27.971 34.7518 28.5908 34.7078Z" fill="#F0F2FC"/>
<path id="Vector_3" d="M30.1183 37.2348C30.5283 36.8883 30.7772 36.3612 30.7577 35.7854C30.7235 34.7849 29.8792 33.9992 28.8788 34.0334L22.266 34.2725L17.1711 27.8013C16.4586 27.0985 15.3068 27.1083 14.6041 27.8208C13.9013 28.5333 13.911 29.6851 14.6235 30.3878L20.2749 37.4056C20.6312 37.757 21.1143 37.9425 21.617 37.9278L29.0105 37.6594C29.4302 37.6545 29.8158 37.4935 30.1183 37.2348Z" fill="url(#paint0_linear_2_2423)"/>
<g id="Group">
<g id="Group_2">
<path id="Vector_4" d="M15.209 80.3125L17.0343 80.3418C17.1563 81.635 16.0436 84.3826 17.7663 85.1976C19.8697 86.1981 20.7334 86.5592 21.1434 87.7402C21.1922 87.8769 21.0946 88.0233 20.9482 88.0184L14.8625 87.9208C14.7356 87.9208 14.6381 87.8037 14.6673 87.6768C14.7893 87.096 15.4726 81.4008 15.209 80.3125Z" fill="#212785"/>
<path id="Vector_5" d="M5.39007 80.0293L7.21528 80.0732C7.32265 81.3665 6.19044 84.1043 7.89853 84.9388C9.99216 85.9588 10.856 86.3297 11.2513 87.5107C11.2952 87.6474 11.1976 87.7889 11.0512 87.7889L4.96549 87.6376C4.8386 87.6327 4.74587 87.5205 4.77027 87.3936C4.90692 86.8031 5.64384 81.1176 5.39007 80.0293Z" fill="#212785"/>
</g>
<g id="Group_3">
<g id="Group_4">
<path id="Vector_6" d="M17.4491 82.2849C17.3808 82.4411 16.151 82.4509 15.3994 82.4362C15.0676 82.4314 14.8284 82.4265 14.8284 82.4265L13.5742 72.3292C13.5108 71.5972 13.4034 70.8652 13.2862 70.138C12.7299 66.7755 12.6616 53.2572 12.6616 53.2572L11.2854 53.2084C11.2854 53.2084 9.67975 64.2085 9.39181 67.2635C9.34789 67.7515 9.26006 68.2347 9.15757 68.713C9.04533 69.2352 9.01117 69.6207 9.04533 70.4259C9.09414 71.5874 7.68373 82.4362 7.68373 82.4362L5.09717 82.1922C5.09717 82.1922 5.41441 69.0839 5.67306 66.3412C5.89268 63.984 5.83413 51.3881 5.80973 47.8987C5.80973 47.845 5.80973 47.7962 5.80973 47.7474C5.80484 47.274 5.80484 47.0007 5.80484 47.0007L5.96587 47.0105L17.3369 47.6205C17.3369 47.6205 17.3369 47.7572 17.3369 48.0061C17.3369 48.1037 17.3369 48.2159 17.3418 48.3477V48.3623C17.3418 48.3916 17.3418 48.4209 17.3418 48.4502C17.3466 48.7234 17.3466 49.0553 17.3466 49.4409C17.3613 53.0425 17.4101 60.9339 17.4784 63.2276C17.576 66.2436 17.5418 82.0702 17.4491 82.2849Z" fill="#9BA1FF"/>
</g>
<g id="Group_5">
<g id="Group_6">
<path id="Vector_7" d="M16.5658 82.284L16.4535 82.2352C16.5365 81.9033 16.5853 66.4524 16.4731 63.2168C16.3901 60.6401 16.3462 51.2797 16.3364 49.4301C16.3364 49.0788 16.3364 48.7713 16.3315 48.5126V48.4395H16.4584V48.5126C16.4584 48.7713 16.4633 49.0836 16.4633 49.4301C16.4731 51.2797 16.517 60.6352 16.6 63.212C16.6976 66.1791 16.6732 82.04 16.5658 82.284Z" fill="#E4E8FD"/>
</g>
</g>
<g id="Group_7">
<g id="Group_8">
<path id="Vector_8" d="M6.07312 82.2256L5.94629 82.2208C5.95117 82.089 6.26835 69.0782 6.52213 66.3648C6.7515 63.9345 6.67343 50.4552 6.65879 47.7759L6.6539 46.9658L6.88326 46.9804L6.87837 47.1073L6.78079 47.1025L6.78568 47.7808C6.8052 50.4601 6.87839 63.9491 6.64902 66.3843C6.39524 69.088 6.078 82.0939 6.07312 82.2256Z" fill="#E4E8FD"/>
</g>
</g>
<path id="Vector_9" d="M9.15262 68.7175C9.25998 68.2343 9.34294 67.756 9.39175 67.2631C9.66504 64.3399 11.1535 54.1109 11.2853 53.208H9.98712C9.63086 53.8912 9.34781 54.7209 9.25997 55.5017C9.02084 57.6637 8.92812 59.8403 8.84027 62.0169C8.51818 69.9765 7.62019 74.442 7.29321 82.4017L7.68366 82.4407C7.68366 82.4407 9.09407 71.5919 9.04527 70.4304C9.00622 69.6252 9.03549 69.2397 9.15262 68.7175Z" fill="#868CF6"/>
<path id="Vector_10" d="M13.8865 67.5657C13.3643 62.8856 12.7055 57.8638 13.6376 53.2812L12.6567 53.2568C12.6665 54.7502 12.7592 66.9801 13.2814 70.1376C13.4034 70.8648 13.5059 71.5968 13.5693 72.3288L14.8235 82.4261C14.8235 82.4261 15.0627 82.431 15.3946 82.4359C15.131 76.3453 14.5697 73.6319 13.8865 67.5657Z" fill="#868CF6"/>
</g>
</g>
<g id="Group_9">
<path id="Vector_11" d="M17.3272 48.8164C16.478 49.0361 15.0189 49.5582 12.4128 49.3142C10.4022 49.1239 7.06404 48.9677 5.80005 47.9087C5.80005 47.855 5.80005 47.8062 5.80005 47.7574C5.79517 47.2841 5.79517 47.0107 5.79517 47.0107L5.95619 47.0205C7.2153 48.1234 10.5242 48.0454 12.5299 48.2357C15.1018 48.4748 16.478 48.3675 17.3321 48.021H17.337C17.337 48.1527 17.3321 48.2503 17.3321 48.3626V48.3772C17.3321 48.4944 17.3272 48.6261 17.3272 48.8164Z" fill="#212785"/>
<path id="Vector_12" d="M10.2234 47.5462L9.87842 47.5137L9.67908 49.6273L10.024 49.6598L10.2234 47.5462Z" fill="#4F5CD3"/>
<path id="Vector_13" d="M15.0149 48.0579L14.6699 48.0254L14.471 50.1389L14.816 50.1714L15.0149 48.0579Z" fill="#4F5CD3"/>
<g id="Group_10">
<g id="Group_11">
<path id="Vector_14" d="M12.8716 49.8789L11.6466 49.7667C11.4514 49.7472 11.305 49.5763 11.3245 49.3763L11.3831 48.7369C11.4026 48.5417 11.5734 48.3953 11.7735 48.4148L12.9985 48.5271C13.1937 48.5466 13.3401 48.7174 13.3206 48.9175L13.262 49.5568C13.2425 49.752 13.0717 49.8984 12.8716 49.8789ZM11.7637 48.5417C11.6368 48.532 11.5246 48.6247 11.51 48.7516L11.4514 49.3909C11.4416 49.5178 11.5344 49.63 11.6613 49.6447L12.8862 49.7569C13.0131 49.7667 13.1254 49.6739 13.14 49.5471L13.1986 48.9077C13.2083 48.7809 13.1156 48.6686 12.9887 48.654L11.7637 48.5417Z" fill="#E4E8FD"/>
</g>
</g>
<path id="Vector_15" d="M12.2797 49.7741L12.1582 49.7627L11.9188 52.3039L12.0403 52.3153L12.2797 49.7741Z" fill="#E4E8FD"/>
</g>
<g id="Group_12">
<path id="Vector_16" d="M17.3419 47.7865C17.2492 49.3189 5.72692 48.4746 5.82452 46.9422C6.40527 37.0938 3.86753 30.1004 5.38529 28.5192C5.5561 28.3435 6.10753 27.2601 8.57693 26.3768C8.67454 26.3426 8.77702 26.3085 8.87951 26.2743C8.91367 26.2646 8.94788 26.2499 8.98692 26.2401C9.065 26.2206 9.1333 26.206 9.20651 26.1913C9.21139 26.1913 9.22117 26.1865 9.23093 26.1865C9.67503 26.1035 10.124 26.0449 10.573 26.0157C10.9488 25.9913 11.3245 25.9815 11.7052 25.9961C11.754 25.9961 11.8077 26.001 11.8565 26.001C11.9541 26.0059 12.0517 26.0108 12.1542 26.0157C12.2323 26.0205 12.3152 26.0254 12.3982 26.0401C12.7545 26.0645 13.1156 26.1133 13.4865 26.1816C13.6036 26.206 13.7256 26.2255 13.8476 26.2548C13.9501 26.2743 14.0526 26.2987 14.1551 26.328C15.2092 26.5964 16.2048 27.06 16.8685 27.8458C17.5811 31.9061 17.1857 40.6125 17.3419 47.7865Z" fill="url(#paint1_linear_2_2423)"/>
</g>
<g id="Group_13">
<g id="Group_14">
<path id="Vector_17" d="M14.1499 26.324C14.0572 26.7535 13.7839 27.1439 13.3593 27.4563C12.842 27.8369 12.1539 28.0614 11.4219 28.0809C11.3536 28.0809 11.2803 28.0858 11.212 28.0809C9.8553 28.0468 8.78163 27.3343 8.57666 26.3826C8.67427 26.3485 8.77675 26.3143 8.87923 26.2801C8.9134 26.2704 8.9476 26.2557 8.98664 26.246C9.06473 26.2264 9.13303 26.2118 9.20623 26.1972C9.21111 26.1972 9.2209 26.1923 9.23066 26.1923C9.67476 26.1093 10.1237 26.0508 10.5727 26.0215C10.9973 26.0117 11.4268 26.0068 11.8562 26.0068C11.9538 26.0117 12.0514 26.0166 12.1539 26.0215C12.232 26.0264 12.315 26.0312 12.3979 26.0459C12.7542 26.0703 13.1153 26.1191 13.4862 26.1874C13.6033 26.2118 13.7253 26.2313 13.8474 26.2606C13.945 26.2704 14.0474 26.2948 14.1499 26.324Z" fill="white"/>
<path id="Vector_18" d="M13.8426 26.2511C13.6572 27.0759 12.647 27.7298 11.4123 27.764C10.119 27.7981 9.04044 27.1491 8.87939 26.2755C8.91356 26.2657 8.94776 26.2511 8.98681 26.2413C9.06489 26.2218 9.13319 26.2072 9.20639 26.1925C9.21127 26.1925 9.22106 26.1876 9.23082 26.1876C9.42115 26.1486 9.61633 26.1193 9.81154 26.0949L9.93355 21.366C9.95307 20.5998 10.5924 19.9897 11.3635 20.0092C11.749 20.019 12.0906 20.1849 12.3395 20.4436C12.5835 20.7022 12.73 21.0536 12.7202 21.4343L12.603 26.051C12.8958 26.0754 13.1936 26.1193 13.4913 26.173C13.6035 26.2023 13.7206 26.2267 13.8426 26.2511Z" fill="url(#paint2_linear_2_2423)"/>
<g id="Group_15">
<path id="Vector_19" d="M13.7208 18.5785L14.0624 21.9947C14.2039 23.4002 13.1742 24.6544 11.7687 24.7959C10.3631 24.9375 9.10892 23.9077 8.96739 22.5022L8.6258 19.086C8.48427 17.6805 9.51398 16.4263 10.9195 16.2848C11.6223 16.2164 12.286 16.4361 12.7984 16.8558C13.3059 17.2706 13.6524 17.8757 13.7208 18.5785Z" fill="url(#paint3_linear_2_2423)"/>
<path id="Vector_20" d="M9.0746 21.3847C8.82083 21.4286 8.59638 21.2237 8.44509 21.0138C8.18156 20.6527 8.01072 20.233 7.92776 19.7938C7.89848 19.6132 7.89848 19.3838 8.04976 19.2716C8.13761 19.2033 8.25963 19.1984 8.36699 19.2374C8.47436 19.2765 8.56217 19.3497 8.64025 19.4326C8.85499 19.6669 8.99163 19.9841 9.00627 20.3013L9.0746 21.3847Z" fill="url(#paint4_linear_2_2423)"/>
<g id="Group_16">
<path id="Vector_21" d="M14.8478 18.613C13.74 19.345 9.54297 18.7008 9.47464 18.6715C9.46976 18.6715 9.45998 18.6911 9.4551 18.7252C9.41118 19.0717 9.46487 20.9897 9.27942 21.2776C9.07933 21.5948 9.0842 20.9018 9.02564 20.7261C8.96708 20.5553 8.68893 19.4573 8.68893 19.4573C8.68893 19.4573 8.63521 18.9546 8.41072 18.5105C8.18135 18.0664 7.73727 17.0367 8.2497 16.3485C8.75724 15.6604 9.39654 16.0362 9.39654 16.0362C9.39654 16.0362 10.8606 14.3672 12.4077 14.5331C13.9547 14.699 13.3007 15.8996 13.3007 15.8996C13.3007 15.8996 14.0816 15.6946 14.6379 15.8166C14.921 15.8752 15.1406 16.0167 15.1845 16.3095C15.1796 16.3095 15.9605 17.8761 14.8478 18.613Z" fill="url(#paint5_linear_2_2423)"/>
<path id="Vector_22" d="M14.8477 18.6128C13.7399 19.3448 9.54291 18.7006 9.47459 18.6714C9.46971 18.6714 9.45993 18.6909 9.45505 18.725C9.43065 18.7006 9.40624 18.6762 9.3916 18.6518C9.48921 18.5493 9.72343 18.6128 9.8552 18.6128C10.0407 18.6177 10.231 18.6177 10.4164 18.6128C10.7922 18.603 11.168 18.5738 11.534 18.5054C12.3002 18.3639 13.0518 18.0516 13.6081 17.5099C14.0864 17.0462 14.3939 16.4508 14.6379 15.8213C14.9209 15.8799 15.1405 16.0214 15.1845 16.3142C15.1796 16.3093 15.9604 17.8759 14.8477 18.6128Z" fill="url(#paint6_linear_2_2423)"/>
</g>
</g>
</g>
<g id="Group_17">
<g id="Group_18">
<path id="Vector_23" d="M13.2129 19.9344C12.9299 20.032 12.5638 20.0027 12.3003 19.8709C12.2417 19.8416 12.2466 19.788 12.3101 19.7684C12.4516 19.7196 12.6127 19.705 12.7737 19.7148C12.9348 19.7245 13.0909 19.7684 13.2227 19.8319C13.2764 19.8612 13.2764 19.9149 13.2129 19.9344Z" fill="#121C7C"/>
</g>
<g id="Group_19">
<path id="Vector_24" d="M10.8023 19.8712C10.5436 20.0225 10.1825 20.0713 9.89457 19.9932C9.83113 19.9786 9.82624 19.9249 9.87992 19.8907C10.0068 19.8175 10.163 19.7638 10.3192 19.7443C10.4753 19.7248 10.6412 19.7297 10.7828 19.7687C10.8462 19.7833 10.856 19.837 10.8023 19.8712Z" fill="#121C7C"/>
</g>
<g id="Group_20">
<g id="Group_21">
<path id="Vector_25" d="M11.2515 23.9166C10.8952 23.9215 10.6561 23.6726 10.5634 23.5066C10.539 23.4578 10.5536 23.3993 10.6024 23.3749C10.6512 23.3505 10.7098 23.3651 10.7342 23.4139C10.7439 23.4334 10.9879 23.8531 11.4662 23.6823C11.515 23.6628 11.5736 23.6921 11.5882 23.7409C11.6077 23.7897 11.5784 23.8483 11.5296 23.8629C11.432 23.8971 11.3393 23.9117 11.2515 23.9166Z" fill="white"/>
</g>
<g id="Group_22">
<path id="Vector_26" d="M10.9781 21.2089C10.9781 21.3114 10.9 21.3943 10.7975 21.3943C10.695 21.3943 10.6121 21.3162 10.6121 21.2138C10.6121 21.1113 10.6901 21.0283 10.7926 21.0283C10.8902 21.0283 10.9732 21.1064 10.9781 21.2089Z" fill="#121C7C"/>
</g>
<g id="Group_23">
<path id="Vector_27" d="M12.7981 21.1886C12.7981 21.2911 12.7201 21.374 12.6176 21.374C12.5151 21.374 12.4321 21.296 12.4321 21.1935C12.4321 21.091 12.5102 21.008 12.6127 21.008C12.7103 21.0031 12.7933 21.0861 12.7981 21.1886Z" fill="#121C7C"/>
</g>
<g id="Group_24">
<path id="Vector_28" d="M12.8082 22.2188C12.3055 22.2237 11.8907 21.8186 11.8809 21.316C11.876 20.8133 12.2811 20.3985 12.7837 20.3887C13.2864 20.3838 13.7061 20.7889 13.711 21.2916C13.7208 21.7991 13.3108 22.2139 12.8082 22.2188ZM12.7886 20.5449C12.3689 20.5498 12.0322 20.8963 12.0371 21.316C12.042 21.7357 12.3885 22.0724 12.8082 22.0675C13.2279 22.0626 13.5646 21.7162 13.5597 21.2965C13.5549 20.8767 13.2083 20.54 12.7886 20.5449Z" fill="white"/>
</g>
<g id="Group_25">
<path id="Vector_29" d="M10.7194 22.2426C10.2167 22.2475 9.80192 21.8424 9.79216 21.3398C9.7824 20.8371 10.1923 20.4223 10.695 20.4125C11.1977 20.4028 11.6125 20.8127 11.6223 21.3154C11.632 21.8229 11.2269 22.2377 10.7194 22.2426ZM10.6999 20.5638C10.2802 20.5687 9.94342 20.9152 9.9483 21.3349C9.95319 21.7546 10.2997 22.0913 10.7194 22.0864C11.1391 22.0816 11.4758 21.7351 11.4709 21.3154C11.4661 20.8957 11.1196 20.5638 10.6999 20.5638Z" fill="white"/>
</g>
<g id="Group_26">
<path id="Vector_30" d="M11.5783 21.3743L11.4758 21.2571C11.5881 21.1546 11.6906 21.1107 11.7931 21.1205C11.8809 21.1302 11.9541 21.179 12.0224 21.262L11.9004 21.3547C11.8614 21.301 11.8223 21.2766 11.7833 21.2718C11.7247 21.2718 11.6564 21.3059 11.5783 21.3743Z" fill="white"/>
</g>
</g>
</g>
</g>
<path id="Vector_31" d="M29.186 29.5439L38.2731 37.8892L29.1957 43.1647L29.186 34.8146V29.5439Z" fill="#F49758"/>
<path id="Vector_32" d="M29.1862 34.8146L29.1959 43.1647L20.0698 37.894L29.1862 29.5439V34.8146Z" fill="#FFA668"/>
<path id="Vector_33" d="M25.6626 41.0657C25.6235 41.0804 25.5747 41.0902 25.5503 41.1194C25.3893 41.2805 25.2136 41.4074 24.9794 41.4122C24.8671 41.4122 24.8232 41.4659 24.7988 41.5586C24.7793 41.6514 24.7207 41.7002 24.628 41.7148C24.5548 41.7295 24.4767 41.7392 24.4084 41.7636C24.3108 41.7978 24.1839 41.8173 24.135 41.8905C23.9935 42.0906 23.7544 42.1345 23.569 42.0906C23.3445 42.0369 23.1249 41.9588 22.9053 41.8808C22.6857 41.8076 22.466 41.7295 22.2464 41.6514C22.0268 41.5684 21.7974 41.5001 21.5925 41.3879C21.3631 41.2658 21.1581 41.095 20.9385 40.9584C20.6164 40.7583 20.265 40.6216 19.8893 40.5875L18.1324 40.4752C18.0152 40.4655 17.8981 40.4557 17.7712 40.446C18.1568 39.7871 18.5325 39.1429 18.8937 38.528C19.3036 38.6305 19.6843 38.7427 20.0649 38.8159C20.4017 38.8794 20.753 38.8989 21.0947 38.9477C21.2655 38.9721 21.4265 38.9526 21.5876 38.8941C21.7584 38.8306 21.9292 38.7672 22.1098 38.7281C22.4075 38.6549 22.7003 38.5329 23.0175 38.5573C23.3201 38.5817 23.6275 38.4402 23.9301 38.5914C24.018 38.6354 24.1351 38.6207 24.2376 38.6403C24.2913 38.6549 24.3693 38.6696 24.3839 38.7037C24.4035 38.7525 24.3791 38.8306 24.3449 38.8696C24.218 39.0258 24.0521 39.1429 23.8422 39.1136C23.6666 39.0892 23.5007 39.0844 23.3299 39.1381C23.2762 39.1576 23.2176 39.182 23.1639 39.2064C23.3786 39.3821 23.5836 39.5431 23.7837 39.709C23.9594 39.8555 24.1399 39.997 24.3156 40.1434C24.3937 40.2117 24.4621 40.3044 24.5499 40.3484C24.7549 40.4557 24.9696 40.5338 25.1794 40.6216C25.2087 40.6363 25.2429 40.6265 25.2771 40.6265C25.4625 40.6265 25.6284 40.6656 25.7553 40.8071C25.8383 40.9145 25.8041 41.0218 25.6626 41.0657Z" fill="#FCB3B3"/>
<path id="Vector_34" d="M17.7372 38.1634L19.7137 38.505C20.3286 38.6124 20.7434 39.198 20.6361 39.8129L20.6165 39.9301C20.5091 40.545 19.9236 40.9549 19.3086 40.8476L17.3321 40.5059C16.7172 40.3986 16.3073 39.8129 16.4097 39.198L16.4293 39.0809C16.5366 38.4708 17.1271 38.056 17.7372 38.1634Z" fill="#F0F2FC"/>
<path id="Vector_35" d="M18.6009 40.9881C19.0792 40.749 19.4501 40.3049 19.5721 39.7388C19.7819 38.7579 19.1573 37.7916 18.1715 37.5817L11.7002 36.2055L8.33286 28.6899C7.81067 27.831 6.6931 27.5626 5.83417 28.0847C4.97525 28.6069 4.70684 29.7245 5.22902 30.5834L9.00633 38.7676C9.26499 39.1922 9.68958 39.4947 10.1776 39.5972L17.4151 41.1394C17.8348 41.2273 18.2495 41.1638 18.6009 40.9881Z" fill="url(#paint7_linear_2_2423)"/>
<g id="Group_27">
<path id="Vector_36" d="M113.624 96.2086H0.856258C0.646407 96.2086 0.480469 96.0427 0.480469 95.8328C0.480469 95.623 0.646407 95.457 0.856258 95.457H113.624C113.834 95.457 114 95.623 114 95.8328C114 96.0427 113.834 96.2086 113.624 96.2086Z" fill="#C5CCED"/>
</g>
<path id="Vector_37" d="M101.404 73.9792L66.0028 94.9155L35.7794 77.1563L30.3721 73.9792L65.7734 53.0381L101.404 73.9792Z" fill="#F6F6FE"/>
<path id="Vector_38" d="M64.5094 37.5137L64.4752 55.1412L58.2236 51.4663L58.2578 33.8438L64.5094 37.5137Z" fill="#EAEAFA"/>
<path id="Vector_39" d="M58.2578 33.8433L58.2237 51.4659L56.8621 50.6704L56.8962 33.043L58.2578 33.8433Z" fill="#EAEAFA"/>
<path id="Vector_40" d="M64.5094 42.4717L64.4752 55.1408L58.2236 51.466L58.2578 38.7969L64.5094 42.4717Z" fill="#EAEAFA"/>
<path id="Vector_41" d="M64.5093 42.4717L53.0358 49.2601L46.7842 45.5853L58.2577 38.7969L64.5093 42.4717Z" fill="#F6F6FE"/>
<g id="Group_28">
<g id="Group_29">
<path id="Vector_42" d="M50.9276 43.2969L54.3975 48.4504L47.4382 44.3608L50.9276 43.2969Z" fill="#892A43"/>
</g>
</g>
<path id="Vector_43" d="M65.866 38.314L65.8318 67.0734L64.4751 66.273L64.5093 37.5137L65.866 38.314Z" fill="#EAEAFA"/>
<path id="Vector_44" d="M74.7824 33.043L74.7483 61.7974L65.832 67.073L65.8662 38.3137L74.7824 33.043Z" fill="#DADAF5"/>
<path id="Vector_45" d="M84.977 45.5853L78.7694 49.2601L67.2178 42.4717L73.4303 38.7969L84.977 45.5853Z" fill="#F6F6FE"/>
<g id="Group_30">
<g id="Group_31">
<path id="Vector_46" d="M80.7995 43.291L77.3296 48.4494L84.2888 44.3598L80.7995 43.291Z" fill="#892A43"/>
</g>
</g>
<path id="Vector_47" d="M74.7821 33.0431L65.8659 38.3138L64.5092 37.5134L58.2576 33.8435L56.896 33.0431L65.8122 27.7676L74.7821 33.0431Z" fill="#F6F6FE"/>
<path id="Vector_48" d="M64.5096 42.4717L64.4754 66.2727L53.002 73.0611L53.0361 49.2601L64.5096 42.4717Z" fill="#C8C8EE"/>
<path id="Vector_49" d="M53.036 49.2598L53.0018 61.9289L46.7502 58.2541L46.7844 45.585L53.036 49.2598Z" fill="#7E7E86"/>
<path id="Vector_50" d="M84.9772 45.585L84.9431 58.2541L78.7354 61.9289L78.7695 49.2598L84.9772 45.585Z" fill="#B5B5C1"/>
<path id="Vector_51" d="M85.0309 49.5732L84.9919 67.2007L78.7402 63.5259L78.7793 45.9033L85.0309 49.5732Z" fill="#EAEAFA"/>
<path id="Vector_52" d="M78.7696 49.2601L78.7354 73.0611L67.1838 66.2727L67.218 42.4717L78.7696 49.2601Z" fill="#C8C8EE"/>
<path id="Vector_53" d="M78.7793 45.9019L78.7402 63.5245L77.3835 62.729L77.4177 45.1016L78.7793 45.9019Z" fill="#EAEAFA"/>
<path id="Vector_54" d="M85.0309 54.5303L84.9919 67.1995L78.7402 63.5246L78.7793 50.8555L85.0309 54.5303Z" fill="#EAEAFA"/>
<path id="Vector_55" d="M85.0307 54.5303L73.5572 61.3187L67.3057 57.6439L78.7791 50.8555L85.0307 54.5303Z" fill="#F6F6FE"/>
<path id="Vector_56" d="M86.3874 50.3726L86.3532 79.132L84.9917 78.3316L85.0307 49.5723L86.3874 50.3726Z" fill="#EAEAFA"/>
<path id="Vector_57" d="M95.3039 45.1016L95.2697 73.856L86.3535 79.1315L86.3877 50.3722L95.3039 45.1016Z" fill="#DADAF5"/>
<path id="Vector_58" d="M95.3036 45.1017L86.3874 50.3724L85.0307 49.572L78.7791 45.9021L77.4175 45.1017L78.7693 44.3014L84.977 40.6265L86.3288 39.8262L95.3036 45.1017Z" fill="#F6F6FE"/>
<path id="Vector_59" d="M54.3976 45.1016L54.3586 73.856L45.4473 79.1315L45.4814 50.3722L54.3976 45.1016Z" fill="#DADAF5"/>
<path id="Vector_60" d="M45.4813 50.3722L45.4472 79.1315L36.4724 73.856L36.5115 45.1016L45.4813 50.3722Z" fill="#EAEAFA"/>
<path id="Vector_61" d="M54.3973 45.1017L45.4811 50.3724L36.5112 45.1017L45.4225 39.8262L54.3973 45.1017Z" fill="#F6F6FE"/>
<path id="Vector_62" d="M85.0308 54.5312L84.9918 78.3322L73.5183 85.1207L73.5573 61.3197L85.0308 54.5312Z" fill="#C8C8EE"/>
<path id="Vector_63" d="M73.5573 61.3193L73.5182 73.9885L67.2715 70.3136L67.3057 57.6445L73.5573 61.3193Z" fill="#7E7E86"/>
<path id="Vector_64" d="M64.5923 57.6439L58.3797 61.3187L46.833 54.5303L53.0456 50.8555L64.5923 57.6439Z" fill="#F6F6FE"/>
<g id="Group_32">
<g id="Group_33">
<path id="Vector_65" d="M60.4147 55.3555L56.9448 60.5139L63.904 56.4242L60.4147 55.3555Z" fill="#892A43"/>
</g>
</g>
<path id="Vector_66" d="M64.5924 57.6445L64.5583 70.3136L58.3457 73.9885L58.3798 61.3193L64.5924 57.6445Z" fill="#B5B5C1"/>
<path id="Vector_67" d="M58.3797 61.3197L58.3455 85.1207L46.7988 78.3322L46.833 54.5312L58.3797 61.3197Z" fill="#C8C8EE"/>
<path id="Vector_68" d="M74.9189 57.1613L66.0026 62.432L57.0278 57.1613L58.3797 56.3609L64.5922 52.6861L65.9441 51.8857L74.9189 57.1613Z" fill="#F6F6FE"/>
<path id="Vector_69" d="M86.4023 36.752L95.3332 45.1021L86.4169 50.3776L86.4023 42.0275V36.752Z" fill="#F49758"/>
<path id="Vector_70" d="M86.4021 42.0285L86.4167 50.3786L77.4468 45.103L86.4021 36.7578V42.0285Z" fill="#FFA668"/>
<path id="Vector_71" d="M71.4442 55.3506L74.919 60.5041L67.9597 56.4145L71.4442 55.3506Z" fill="#892A43"/>
<path id="Vector_72" d="M74.9191 57.1611L74.8801 85.9156L65.9688 91.1911L66.0029 62.4318L74.9191 57.1611Z" fill="#DADAF5"/>
<path id="Vector_73" d="M66.0028 62.4318L65.9687 91.1911L56.9939 85.9156L57.028 57.1611L66.0028 62.4318Z" fill="#EAEAFA"/>
<path id="Vector_74" d="M66.0176 48.8115L74.9436 57.1617L66.0273 62.4323L66.0176 54.0822V48.8115Z" fill="#F49758"/>
<path id="Vector_75" d="M66.0173 54.0822L66.027 62.4323L57.0571 57.1617L66.0173 48.8115V54.0822Z" fill="#FFA668"/>
<path id="Vector_76" d="M65.8467 24.6934L74.7775 33.0435L65.8613 38.3142L65.8467 29.964V24.6934Z" fill="#F49758"/>
<path id="Vector_77" d="M65.8467 29.964L65.8613 38.3142L56.8914 33.0435L65.8467 24.6934V29.964Z" fill="#FFA668"/>
<mask id="mask0_2_2423" style="mask-type:alpha" maskUnits="userSpaceOnUse" x="99" y="83" width="10" height="6">
<g id="SVGID_210_">
<g id="Group_34">
<path id="Vector_78" d="M106.689 83.417L108.856 84.6371L99.7595 88.6974L106.689 83.417Z" fill="url(#paint8_linear_2_2423)"/>
</g>
</g>
</mask>
<g mask="url(#mask0_2_2423)">
<path id="Vector_79" opacity="0.5" d="M106.689 83.417L108.856 84.6371L99.7595 88.6974L106.689 83.417Z" fill="url(#paint9_linear_2_2423)"/>
<path id="Vector_80" d="M105.006 83.1876L106.826 84.0124L113.624 81.5381L105.006 83.1876Z" fill="#EAEAFA"/>
<path id="Vector_81" d="M106.826 84.0124L107.124 85.9352L108.266 84.6517L113.624 81.5381L106.826 84.0124Z" fill="#DADAF5"/>
<path id="Vector_82" d="M107.124 85.9349L109.13 84.8075L108.266 84.6514L107.124 85.9349Z" fill="#C8C8EE"/>
<path id="Vector_83" d="M113.624 81.5381L108.266 84.6517L110.852 85.7351L113.624 81.5381Z" fill="#EAEAFA"/>
</g>
<mask id="mask1_2_2423" style="mask-type:alpha" maskUnits="userSpaceOnUse" x="46" y="22" width="10" height="6">
<g id="SVGID_213_">
<g id="Group_35">
<path id="Vector_84" d="M48.2777 22.1846L46.1108 23.4046L55.2076 27.4601L48.2777 22.1846Z" fill="url(#paint10_linear_2_2423)"/>
</g>
</g>
</mask>
<g mask="url(#mask1_2_2423)">
<path id="Vector_85" opacity="0.5" d="M48.2777 22.1846L46.1108 23.4046L55.2076 27.4601L48.2777 22.1846Z" fill="url(#paint11_linear_2_2423)"/>
<path id="Vector_86" d="M49.9613 21.9552L48.141 22.78L41.3428 20.3057L49.9613 21.9552Z" fill="#EAEAFA"/>
<path id="Vector_87" d="M48.141 22.78L47.8384 24.6979L46.7013 23.4193L41.3428 20.3057L48.141 22.78Z" fill="#DADAF5"/>
<path id="Vector_88" d="M47.8385 24.6976L45.8376 23.5751L46.7014 23.4189L47.8385 24.6976Z" fill="#C8C8EE"/>
<path id="Vector_89" d="M41.3428 20.3057L46.7013 23.4193L44.1148 24.5027L41.3428 20.3057Z" fill="#EAEAFA"/>
</g>
<mask id="mask2_2_2423" style="mask-type:alpha" maskUnits="userSpaceOnUse" x="76" y="5" width="16" height="7">
<g id="SVGID_216_">
<g id="Group_36">
<path id="Vector_90" d="M91.6973 10.1204C91.5948 10.3302 91.38 10.3644 91.1946 10.3644C90.199 10.3693 89.1937 10.0716 88.2176 10.3449C87.632 10.5108 87.0854 10.8768 86.4949 11.0232C85.2504 11.3307 84.0011 10.6279 82.742 10.4474C80.7118 10.1497 78.5694 11.194 76.6563 10.218C76.5197 10.1497 76.3635 10.0423 76.3294 9.84709C76.305 9.70068 76.4026 9.5445 76.4953 9.52986L76.2903 9.42738C76.8027 8.82711 77.6031 8.74416 78.1789 9.22242C78.2424 8.66119 78.5255 8.15363 78.9062 7.9145C79.2868 7.67537 79.7553 7.71442 80.1116 8.01211C80.2628 7.42648 80.6191 6.93846 81.0534 6.73349C81.4878 6.5334 81.9905 6.61148 82.376 6.94334C82.6151 6.13809 83.2202 5.56711 83.8596 5.53295C84.0352 5.52319 84.2256 5.55247 84.372 5.69888C84.5184 5.8404 84.5965 6.11857 84.5233 6.3333C84.7526 6.38699 84.9918 6.31867 85.2261 6.28938C85.4603 6.25522 85.719 6.26986 85.9093 6.45531C86.1045 6.64076 86.1777 7.06535 86.0118 7.28496C86.1484 7.14831 86.3583 7.14831 86.4998 7.28496C86.6364 7.41673 86.7096 7.68025 86.6608 7.89986C87.0756 7.90474 87.4954 7.91451 87.9151 7.91939C88.042 7.92427 88.1689 7.92427 88.286 7.99747C88.3982 8.0658 88.491 8.23173 88.4714 8.39766C88.4617 8.49038 88.4129 8.56359 88.3494 8.59775C88.857 8.66119 89.3645 8.72462 89.8721 8.78319C90.0575 8.80271 90.2527 8.83199 90.4186 8.954C90.5846 9.08088 90.7115 9.32978 90.6724 9.57867C90.8969 9.43714 91.1409 9.29562 91.3849 9.36882C91.6289 9.44203 91.829 9.83733 91.6973 10.1204Z" fill="url(#paint12_linear_2_2423)"/>
</g>
</g>
</mask>
<g mask="url(#mask2_2_2423)">
<path id="Vector_91" opacity="0.5" d="M91.6973 10.1204C91.5948 10.3302 91.38 10.3644 91.1946 10.3644C90.199 10.3693 89.1937 10.0716 88.2176 10.3449C87.632 10.5108 87.0854 10.8768 86.4949 11.0232C85.2504 11.3307 84.0011 10.6279 82.742 10.4474C80.7118 10.1497 78.5694 11.194 76.6563 10.218C76.5197 10.1497 76.3635 10.0423 76.3294 9.84709C76.305 9.70068 76.4026 9.5445 76.4953 9.52986L76.2903 9.42738C76.8027 8.82711 77.6031 8.74416 78.1789 9.22242C78.2424 8.66119 78.5255 8.15363 78.9062 7.9145C79.2868 7.67537 79.7553 7.71442 80.1116 8.01211C80.2628 7.42648 80.6191 6.93846 81.0534 6.73349C81.4878 6.5334 81.9905 6.61148 82.376 6.94334C82.6151 6.13809 83.2202 5.56711 83.8596 5.53295C84.0352 5.52319 84.2256 5.55247 84.372 5.69888C84.5184 5.8404 84.5965 6.11857 84.5233 6.3333C84.7526 6.38699 84.9918 6.31867 85.2261 6.28938C85.4603 6.25522 85.719 6.26986 85.9093 6.45531C86.1045 6.64076 86.1777 7.06535 86.0118 7.28496C86.1484 7.14831 86.3583 7.14831 86.4998 7.28496C86.6364 7.41673 86.7096 7.68025 86.6608 7.89986C87.0756 7.90474 87.4954 7.91451 87.9151 7.91939C88.042 7.92427 88.1689 7.92427 88.286 7.99747C88.3982 8.0658 88.491 8.23173 88.4714 8.39766C88.4617 8.49038 88.4129 8.56359 88.3494 8.59775C88.857 8.66119 89.3645 8.72462 89.8721 8.78319C90.0575 8.80271 90.2527 8.83199 90.4186 8.954C90.5846 9.08088 90.7115 9.32978 90.6724 9.57867C90.8969 9.43714 91.1409 9.29562 91.3849 9.36882C91.6289 9.44203 91.829 9.83733 91.6973 10.1204Z" fill="url(#paint13_linear_2_2423)"/>
</g>
<mask id="mask3_2_2423" style="mask-type:alpha" maskUnits="userSpaceOnUse" x="27" y="0" width="17" height="6">
<g id="SVGID_219_">
<g id="Group_37">
<path id="Vector_92" d="M43.2316 4.89871C43.1292 5.10856 42.9145 5.14272 42.729 5.14272C41.7334 5.1476 40.7281 4.8499 39.752 5.12319C39.1664 5.28912 38.6198 5.65515 38.0293 5.80155C36.7849 6.10901 35.5355 5.40626 34.2764 5.22569C32.2462 4.92799 30.1038 5.97237 28.1907 4.99632C28.0541 4.92799 27.8979 4.82062 27.8637 4.62541C27.8393 4.479 27.937 4.32284 28.0297 4.3082L27.8247 4.20572C28.3371 3.60545 29.1375 3.52248 29.7134 4.00074C29.7768 3.43951 30.0599 2.93197 30.4405 2.69284C30.8212 2.4537 31.2897 2.49274 31.6459 2.79043C31.7972 2.2048 32.1535 1.71678 32.5878 1.51181C33.0222 1.31172 33.5248 1.3898 33.9104 1.72166C34.1495 0.916414 34.7547 0.345433 35.394 0.311271C35.5697 0.30151 35.76 0.33079 35.9064 0.477198C36.0528 0.618725 36.1309 0.896894 36.0577 1.11162C36.2871 1.16531 36.5262 1.09699 36.7604 1.0677C36.9947 1.03354 37.2533 1.04818 37.4437 1.23363C37.6389 1.41908 37.7121 1.84367 37.5462 2.06328C37.6828 1.92663 37.8927 1.92663 38.0342 2.06328C38.1709 2.19505 38.244 2.45858 38.1952 2.6782C38.6101 2.68308 39.0297 2.69283 39.4494 2.69771C39.5763 2.70259 39.7032 2.70259 39.8203 2.77579C39.9326 2.84412 40.0253 3.01005 40.0058 3.17598C39.996 3.2687 39.9472 3.34191 39.8838 3.37607C40.3913 3.43951 40.8989 3.50296 41.4064 3.56152C41.5919 3.58104 41.7871 3.61033 41.953 3.73233C42.1189 3.85922 42.2458 4.10811 42.2068 4.357C42.4313 4.21548 42.6753 4.07394 42.9193 4.14714C43.1633 4.22035 43.3634 4.61565 43.2316 4.89871Z" fill="url(#paint14_linear_2_2423)"/>
</g>
</g>
</mask>
<g mask="url(#mask3_2_2423)">
<path id="Vector_93" opacity="0.5" d="M43.2316 4.89871C43.1292 5.10856 42.9145 5.14272 42.729 5.14272C41.7334 5.1476 40.7281 4.8499 39.752 5.12319C39.1664 5.28912 38.6198 5.65515 38.0293 5.80155C36.7849 6.10901 35.5355 5.40626 34.2764 5.22569C32.2462 4.92799 30.1038 5.97237 28.1907 4.99632C28.0541 4.92799 27.8979 4.82062 27.8637 4.62541C27.8393 4.479 27.937 4.32284 28.0297 4.3082L27.8247 4.20572C28.3371 3.60545 29.1375 3.52248 29.7134 4.00074C29.7768 3.43951 30.0599 2.93197 30.4405 2.69284C30.8212 2.4537 31.2897 2.49274 31.6459 2.79043C31.7972 2.2048 32.1535 1.71678 32.5878 1.51181C33.0222 1.31172 33.5248 1.3898 33.9104 1.72166C34.1495 0.916414 34.7547 0.345433 35.394 0.311271C35.5697 0.30151 35.76 0.33079 35.9064 0.477198C36.0528 0.618725 36.1309 0.896894 36.0577 1.11162C36.2871 1.16531 36.5262 1.09699 36.7604 1.0677C36.9947 1.03354 37.2533 1.04818 37.4437 1.23363C37.6389 1.41908 37.7121 1.84367 37.5462 2.06328C37.6828 1.92663 37.8927 1.92663 38.0342 2.06328C38.1709 2.19505 38.244 2.45858 38.1952 2.6782C38.6101 2.68308 39.0297 2.69283 39.4494 2.69771C39.5763 2.70259 39.7032 2.70259 39.8203 2.77579C39.9326 2.84412 40.0253 3.01005 40.0058 3.17598C39.996 3.2687 39.9472 3.34191 39.8838 3.37607C40.3913 3.43951 40.8989 3.50296 41.4064 3.56152C41.5919 3.58104 41.7871 3.61033 41.953 3.73233C42.1189 3.85922 42.2458 4.10811 42.2068 4.357C42.4313 4.21548 42.6753 4.07394 42.9193 4.14714C43.1633 4.22035 43.3634 4.61565 43.2316 4.89871Z" fill="url(#paint15_linear_2_2423)"/>
</g>
</g>
<defs>
<linearGradient id="paint0_linear_2_2423" x1="16.8012" y1="35.19" x2="27.1365" y2="17.6117" gradientUnits="userSpaceOnUse">
<stop stop-color="#4DC591"/>
<stop offset="1" stop-color="#7BDDB3" stop-opacity="0.35"/>
</linearGradient>
<linearGradient id="paint1_linear_2_2423" x1="6.92305" y1="42.7826" x2="29.0449" y2="29.554" gradientUnits="userSpaceOnUse">
<stop stop-color="#4DC591"/>
<stop offset="1" stop-color="#7BDDB3" stop-opacity="0.35"/>
</linearGradient>
<linearGradient id="paint2_linear_2_2423" x1="11.3824" y1="24.7539" x2="11.3419" y2="27.4734" gradientUnits="userSpaceOnUse">
<stop offset="0.0036036" stop-color="#FCB3B3"/>
<stop offset="1" stop-color="#FC8E8E"/>
</linearGradient>
<linearGradient id="paint3_linear_2_2423" x1="11.3282" y1="18.8263" x2="11.3821" y2="24.2919" gradientUnits="userSpaceOnUse">
<stop offset="0.0036036" stop-color="#FCB3B3"/>
<stop offset="1" stop-color="#FC8E8E"/>
</linearGradient>
<linearGradient id="paint4_linear_2_2423" x1="7.91595" y1="20.3021" x2="9.07548" y2="20.3021" gradientUnits="userSpaceOnUse">
<stop offset="0.0036036" stop-color="#FCB3B3"/>
<stop offset="1" stop-color="#FC8E8E"/>
</linearGradient>
<linearGradient id="paint5_linear_2_2423" x1="8.0128" y1="17.9413" x2="15.4456" y2="17.9413" gradientUnits="userSpaceOnUse">
<stop stop-color="#4048C8"/>
<stop offset="1" stop-color="#2D32A4"/>
</linearGradient>
<linearGradient id="paint6_linear_2_2423" x1="15.2049" y1="20.3291" x2="14.9871" y2="20.1115" gradientUnits="userSpaceOnUse">
<stop stop-color="#4048C8"/>
<stop offset="1" stop-color="#2D32A4"/>
</linearGradient>
<linearGradient id="paint7_linear_2_2423" x1="7.3506" y1="37.7426" x2="21.9669" y2="20.3363" gradientUnits="userSpaceOnUse">
<stop stop-color="#4DC591"/>
<stop offset="1" stop-color="#7BDDB3" stop-opacity="0.35"/>
</linearGradient>
<linearGradient id="paint8_linear_2_2423" x1="108.714" y1="83.3273" x2="100.705" y2="89.2887" gradientUnits="userSpaceOnUse">
<stop stop-color="white"/>
<stop offset="0.9928"/>
</linearGradient>
<linearGradient id="paint9_linear_2_2423" x1="108.714" y1="83.3273" x2="100.705" y2="89.2887" gradientUnits="userSpaceOnUse">
<stop stop-color="#EAEAFA"/>
<stop offset="0.9928" stop-color="#BBC2E9"/>
</linearGradient>
<linearGradient id="paint10_linear_2_2423" x1="46.2532" y1="22.0937" x2="54.2622" y2="28.0551" gradientUnits="userSpaceOnUse">
<stop stop-color="white"/>
<stop offset="0.9928"/>
</linearGradient>
<linearGradient id="paint11_linear_2_2423" x1="46.2532" y1="22.0937" x2="54.2622" y2="28.0551" gradientUnits="userSpaceOnUse">
<stop stop-color="#EAEAFA"/>
<stop offset="0.9928" stop-color="#BBC2E9"/>
</linearGradient>
<linearGradient id="paint12_linear_2_2423" x1="76.292" y1="8.3206" x2="91.7394" y2="8.3206" gradientUnits="userSpaceOnUse">
<stop stop-color="white"/>
<stop offset="0.9928"/>
</linearGradient>
<linearGradient id="paint13_linear_2_2423" x1="76.292" y1="8.3206" x2="91.7394" y2="8.3206" gradientUnits="userSpaceOnUse">
<stop stop-color="#EAEAFA"/>
<stop offset="0.9928" stop-color="#BBC2E9"/>
</linearGradient>
<linearGradient id="paint14_linear_2_2423" x1="27.8279" y1="3.09863" x2="43.2754" y2="3.09863" gradientUnits="userSpaceOnUse">
<stop stop-color="white"/>
<stop offset="0.9928"/>
</linearGradient>
<linearGradient id="paint15_linear_2_2423" x1="27.8279" y1="3.09863" x2="43.2754" y2="3.09863" gradientUnits="userSpaceOnUse">
<stop stop-color="#EAEAFA"/>
<stop offset="0.9928" stop-color="#BBC2E9"/>
</linearGradient>
</defs>
</svg>
