<svg width="24" height="24" viewBox="0 0 24 24" fill="none" xmlns="http://www.w3.org/2000/svg">
<g id="Iconly/Two-tone/Chat">
<g id="Chat">
<path id="Path" fill-rule="evenodd" clip-rule="evenodd" d="M12.0568 2.00008C8.54687 1.9859 5.28557 3.80704 3.4605 6.80035C1.63543 9.79366 1.51292 13.5223 3.13757 16.6286L3.33789 17.0191C3.50209 17.3264 3.53644 17.6864 3.43329 18.0191C3.14742 18.7784 2.90849 19.5544 2.71784 20.3429C2.71784 20.7429 2.83231 20.9715 3.26158 20.962C4.0219 20.7941 4.77068 20.5777 5.50332 20.3143C5.81886 20.2274 6.15437 20.2475 6.45725 20.3715C6.73389 20.5048 7.2967 20.8477 7.31578 20.8477C10.9915 22.7804 15.4808 22.2472 18.5998 19.5074C21.7187 16.7676 22.8199 12.39 21.3676 8.50403C19.9153 4.61809 16.2111 2.03053 12.0568 2.00008V2.00008Z" stroke="#9295A3" stroke-width="1.5" stroke-linecap="round" stroke-linejoin="round"/>
<path id="Oval" opacity="0.4" fill-rule="evenodd" clip-rule="evenodd" d="M7.28727 12.4763C7.55069 12.4763 7.76423 12.2631 7.76423 12.0001C7.76423 11.7371 7.55069 11.5239 7.28727 11.5239C7.02385 11.5239 6.8103 11.7371 6.8103 12.0001C6.8103 12.2631 7.02385 12.4763 7.28727 12.4763Z" fill="#9295A3" stroke="#9295A3" stroke-width="1.5" stroke-linecap="round" stroke-linejoin="round"/>
<path id="Oval_2" opacity="0.4" fill-rule="evenodd" clip-rule="evenodd" d="M12.0568 12.4763C12.3202 12.4763 12.5338 12.2631 12.5338 12.0001C12.5338 11.7371 12.3202 11.5239 12.0568 11.5239C11.7934 11.5239 11.5798 11.7371 11.5798 12.0001C11.5798 12.2631 11.7934 12.4763 12.0568 12.4763Z" fill="#9295A3" stroke="#9295A3" stroke-width="1.5" stroke-linecap="round" stroke-linejoin="round"/>
<path id="Oval_3" opacity="0.4" fill-rule="evenodd" clip-rule="evenodd" d="M16.8266 12.4763C17.09 12.4763 17.3035 12.2631 17.3035 12.0001C17.3035 11.7371 17.09 11.5239 16.8266 11.5239C16.5632 11.5239 16.3496 11.7371 16.3496 12.0001C16.3496 12.2631 16.5632 12.4763 16.8266 12.4763Z" fill="#9295A3" stroke="#9295A3" stroke-width="1.5" stroke-linecap="round" stroke-linejoin="round"/>
</g>
</g>
</svg>
